<svg xmlns="http://www.w3.org/2000/svg" viewBox="0 0 121 62.5"><path d="M25.6 62.2h-4v-1.9h-.1a4.5 4.5 0 01-3.9 2.2c-3 0-4.5-1.7-4.5-5.2v-7.6h4v7.2q0 2.7 2.1 2.7a2 2 0 001.7-.8 2.4 2.4 0 00.7-1.9v-7.2h4v12.5m-13.9 0H7.9v-1.8A4.4 4.4 0 014 62.5a3.9 3.9 0 01-2.9-1A3.8 3.8 0 010 58.7c0-2.4 1.5-3.8 4.4-4.2l3.5-.4c0-1.4-.7-2.1-2.2-2.1a7.9 7.9 0 00-4.4 1.4v-2.9a7.9 7.9 0 012.2-.8 12.4 12.4 0 012.7-.3c3.6 0 5.5 1.8 5.5 5.3z" fill="#404040"/><path d="M7.9 57.1v-.8l-2.3.3c-1.3.2-1.9.7-1.9 1.7a1.5 1.5 0 00.4 1.1 2 2 0 001.3.4 2.2 2.2 0 001.8-.8 2.5 2.5 0 00.7-1.9z" fill="#fff"/><path d="M40 62.2h-4v-1.7a4.4 4.4 0 01-4 2 5 5 0 01-3.9-1.6 6.8 6.8 0 01-1.5-4.7 7.1 7.1 0 011.6-4.9 5.3 5.3 0 014.3-1.9 3.8 3.8 0 013.5 1.7v-7.4h4v18.5zm3.7-14.5a2.3 2.3 0 01-1.6-.6 1.7 1.7 0 01-.7-1.4 1.9 1.9 0 01.7-1.4 2.2 2.2 0 011.6-.5 2.3 2.3 0 011.7.5 1.8 1.8 0 01.6 1.4 2 2 0 01-.6 1.5 2.9 2.9 0 01-1.7.5zm2 10.3a1.6 1.6 0 00.4 1.2 1.2 1.2 0 001 .4h1.3v2.7a4 4 0 01-1.5.3h-1.7a3.2 3.2 0 01-1.4-.2 2.8 2.8 0 01-1.1-.8 2.6 2.6 0 01-.7-1.1 4.1 4.1 0 01-.3-1.6v-9.2h4zm37.6 4.2h-4v-7.1q0-2.7-2.1-2.7a1.8 1.8 0 00-1.6.8 3.2 3.2 0 00-.6 2v7h-4V55c0-1.8-.6-2.6-2-2.6a1.9 1.9 0 00-1.6.7 3.8 3.8 0 00-.6 2.2v6.9h-4V49.7h4v2a4.2 4.2 0 011.8-1.7 4.8 4.8 0 012.4-.6 3.7 3.7 0 013.7 2.3 5 5 0 014.4-2.3c2.8 0 4.2 1.7 4.2 5zm12.3 0h-3.8v-1.8a4.2 4.2 0 01-3.8 2.1 4 4 0 01-3-1 3.8 3.8 0 01-1.1-2.8q0-3.6 4.5-4.2l3.5-.4c0-1.4-.8-2.1-2.3-2.1a7.9 7.9 0 00-4.4 1.4v-2.9a8.7 8.7 0 012.3-.8 10.9 10.9 0 012.6-.3c3.7 0 5.5 1.8 5.5 5.3v7.5z" fill="#404040"/><path d="M91.9 56.3l-2.4.3c-1.3.2-1.9.7-1.9 1.7a1.3 1.3 0 00.5 1.1 1.6 1.6 0 001.2.4 2.6 2.6 0 001.9-.8 2.9 2.9 0 00.7-1.9v-.8z" fill="#fff"/><path d="M107 61.8a8.2 8.2 0 01-3.9.7 6.4 6.4 0 01-4.8-1.7 6.1 6.1 0 01-1.8-4.5 6.7 6.7 0 011.9-5.1 7.6 7.6 0 015.3-1.8 6.9 6.9 0 013.3.6v3.3a4.7 4.7 0 00-2.8-.9 4 4 0 00-2.7.9 3.6 3.6 0 00-1 2.7 3.4 3.4 0 003.6 3.6 5.2 5.2 0 002.9-.9zm14 .4h-4.8l-4.1-6.2v6.2h-4V43.7h4v11.8l3.8-5.8h4.8l-4.7 5.9 5 6.6z" fill="#404040"/><ellipse cx="54.8" cy="56" rx="7" ry="6.6" fill="#404040"/><ellipse cx="54.8" cy="56" rx="2.9" ry="3.6" fill="#fff"/><ellipse cx="33.4" cy="56" rx="2.7" ry="3.6" fill="#fff"/><path d="M30.6 16.5s1.2-.2 1.7.3.1 1.6-.5 1.6-1.2.1-1.6-.3a1 1 0 010-1.4l.4-.2m12.6 7.1h-.4c-.8-1.2-1.1-5.2-1.5-5.4s-1.8 2.2-4.6 1.9a6.7 6.7 0 01-3.2-1.4c.1-.9.1-3 1.9-2.3s2.9 1.5 4.5-.5 2.8-1.6 3.4-1.2.2 3.1 1.1 2.4a64.9 64.9 0 004.4-5.2s2.8-2.8 3.2.1 2.2 6.3 2.7 6.2 6.1-11.6 6.8-12.4 3.5-.6 3.4 1.3-.4 13.6-.4 13.6-.3 3.3.2 1.6a18.7 18.7 0 01.7-2.2c1.4-4.4 3.7-12 4.9-15.9l.7-2.4a1.9 1.9 0 01.2-.7c.1-.3.1-.5.2-.6a.4.4 0 01.4-.3.7.7 0 01.6-.2 6.3 6.3 0 012.3.3l.6.2h.1l.2.2c0 .1.1.1.1.2a5.6 5.6 0 01.4 3.8c-.6 5-1.1 15.4-1.1 15.4s-.1.5.9-1.7c.1-.1.1-.1.1-.2a.2.2 0 00.2-.2 6 6 0 013.6-1.2 2.3 2.3 0 011.1.4c.5.7.2 3.3.2 3.3s-2.8.7-3.5.8-1.7 4.4-3.1 4-4.5-2.4-4.5-2.7.2-3.2.3-3.9v-.2c0-.6 0-.8-.3-.2s-1.2 3.7-2.3 7.2c-.2.4-2.3 6.9-2.6 7.7a9.6 9.6 0 01-.8 1.9c-.3.4-.7.7-1.2.5a6.5 6.5 0 01-3.2-2.8c0-2.7.2-17.2-.5-16s-5.8 9.8-5.8 9.8h-.2c-.4-.1-1-.2-1.1-.6h-.1a1.7 1.7 0 01-.1-.7 28.6 28.6 0 01-1-3.1c-.6-1.9-1.2-4-1.3-4.2s-.5-.2-.8 0-3.6 5.4-5.8 5.6" fill="#ffa200"/></svg>