<svg xmlns="http://www.w3.org/2000/svg" viewBox="0 0 369.9 84.3"><defs><linearGradient id="a" x1="-907.68" y1="-132.78" x2="-906.68" y2="-132.78" gradientTransform="matrix(0 -84.25 -84.25 0 -11147.31 -76392.38)" gradientUnits="userSpaceOnUse"><stop offset="0" stop-color="#f15a24"/><stop offset="1" stop-color="#dfbe3b"/></linearGradient></defs><path d="M243.7 60.4v-24c0-.9.1-2.2.2-3.9a11.2 11.2 0 00-.5 1.3l-12.1 26.6h-1.8L217.4 34l-.5-1.2v27.6h-3.7v-35h4.3l11.8 26c.2.5.5 1.1.7 1.7a5.6 5.6 0 01.4 1.2l.4-1.1c.2-.5.4-1.1.7-1.7l11.8-26h4.1v35h-3.7zm18.1 0a11.4 11.4 0 01-4.6-.9 9.2 9.2 0 01-3.5-2.6 10.8 10.8 0 01-2.2-4.1 18.9 18.9 0 01-.8-5.6 14.6 14.6 0 01.9-5.2 14.4 14.4 0 012.4-4.2 10.9 10.9 0 013.6-2.8 10 10 0 014.6-1 9.7 9.7 0 017.5 3.3 10.4 10.4 0 011.9 3.8 19.5 19.5 0 01.7 5v1.8h-17.7a11 11 0 00.6 3.7 8.1 8.1 0 001.6 2.9 6.4 6.4 0 002.5 1.8 9 9 0 003.4.6 12.8 12.8 0 007.7-2.8l.5-.4v3.8h-.1a15.2 15.2 0 01-9 2.9zm6.5-15.6a9.1 9.1 0 00-1.7-5.4 5.7 5.7 0 00-4.6-2 8.7 8.7 0 00-2.8.5 8.6 8.6 0 00-2.2 1.5 8.9 8.9 0 00-1.6 2.5 9.6 9.6 0 00-.8 2.9zm17.6 15.6a11.4 11.4 0 01-4.6-.9 9.2 9.2 0 01-3.5-2.6 10.8 10.8 0 01-2.2-4.1 18.9 18.9 0 01-.8-5.6 14.6 14.6 0 01.9-5.2 14.4 14.4 0 012.4-4.2 10.9 10.9 0 013.6-2.8 10 10 0 014.6-1 9.7 9.7 0 017.5 3.3 10.4 10.4 0 011.9 3.8 19.5 19.5 0 01.7 5v1.8h-17.7a11 11 0 00.6 3.7 8.1 8.1 0 001.6 2.9 6.4 6.4 0 002.5 1.8 9 9 0 003.4.6 12.8 12.8 0 007.7-2.8l.5-.4v3.8h-.1a15 15 0 01-9 2.9zm6.6-15.6a9.1 9.1 0 00-1.7-5.4 5.8 5.8 0 00-4.6-2 8.7 8.7 0 00-2.8.5 8.6 8.6 0 00-2.2 1.5 8.9 8.9 0 00-1.6 2.5 9.6 9.6 0 00-.8 2.9zM308 60.3c-4.1 0-6.2-2.4-6.2-7.2V37.9h-4.3v-3.3h4.3v-6.1l3.7-1.2v7.3h6.3v3.3h-6.3v14.7a5.8 5.8 0 00.8 3.4 2.8 2.8 0 002.5 1 5 5 0 002.6-.8l.5-.3v3.5h-.2a10.3 10.3 0 01-3.7.9zm7.7-.5V34.6h3.7v25.2zm1.8-30.1a2.1 2.1 0 01-1.7-.7 2.4 2.4 0 01-.7-1.8 2.9 2.9 0 01.7-1.8 2.3 2.3 0 011.7-.7l1 .2.8.5a2.2 2.2 0 01.5.8 3 3 0 01.2 1 3.6 3.6 0 01-.2 1 1.6 1.6 0 01-.6.8l-.8.5zm22.8 30.1V45.4c0-5.4-1.9-8-5.7-8a6.4 6.4 0 00-2.8.6 7.6 7.6 0 00-2.3 1.7 9.3 9.3 0 00-1.5 2.6 8.6 8.6 0 00-.5 3.2v14.3h-3.7V34.6h3.7v3.7a9.2 9.2 0 018-4.2 7.8 7.8 0 016.4 2.7 12.4 12.4 0 012.2 7.7v15.3zm16.6 9.5a17.5 17.5 0 01-7.8-1.8h-.2v-3.9l.5.3a15.2 15.2 0 007.5 2.2c6.2 0 9.3-3.1 9.4-9.6a9.9 9.9 0 01-8.5 4.3 10 10 0 01-4.3-.9 10.3 10.3 0 01-3.4-2.5 11.8 11.8 0 01-2.2-4 16.9 16.9 0 01-.8-5.3 18.9 18.9 0 01.8-5.6 12.3 12.3 0 012.3-4.4 10.6 10.6 0 013.7-2.9 10.9 10.9 0 014.8-1 8.5 8.5 0 017.5 3.7v-3.1h3.7v20.7c0 4.7-1.1 8.2-3.2 10.4s-5.4 3.4-9.8 3.4zm2.2-31.8a7.7 7.7 0 00-3.4.7 8.6 8.6 0 00-2.6 2 8.8 8.8 0 00-1.6 3.2 14.4 14.4 0 00-.6 4.3 16.2 16.2 0 00.5 4 10.5 10.5 0 001.5 3 6 6 0 002.3 1.9 7.4 7.4 0 003.1.7 7.9 7.9 0 003.2-.6 6.4 6.4 0 002.5-1.8 8.1 8.1 0 001.6-2.7 8.8 8.8 0 00.6-3.3v-4.3a8.7 8.7 0 00-.5-2.8 7.6 7.6 0 00-1.5-2.3 6.3 6.3 0 00-2.3-1.6 11.1 11.1 0 00-2.8-.4zm-225 20.1a27.6 27.6 0 01-13.1 2.9c-5.5 0-9.9-1.5-13.1-4.6s-4.8-7.3-4.8-12.7 1.7-9.8 5.2-13.2 8.1-5.1 13.9-5.1a32.8 32.8 0 0110.3 1.5v7.3a22.2 22.2 0 00-10.4-2.3 10.6 10.6 0 00-7.9 3.1 11.7 11.7 0 00-3 8.4c0 3.5.9 6.3 2.7 8.2a9.8 9.8 0 007.4 2.9 13.7 13.7 0 005-.8v-6.1h-7.5v-6.2H134v16.7zm17.1 2.9c-4.2 0-7.5-1.2-9.9-3.5s-3.6-5.5-3.6-9.5 1.2-7.4 3.7-9.7 5.9-3.5 10.1-3.5 7.5 1.2 9.9 3.5a12.3 12.3 0 013.6 9.3c0 4.1-1.2 7.4-3.7 9.8s-5.8 3.6-10.1 3.6zm.2-20.3a5.1 5.1 0 00-4.3 1.9 8.4 8.4 0 00-1.5 5.3c0 4.8 2 7.2 5.9 7.2s5.6-2.5 5.6-7.4-1.9-7-5.7-7zm43.8 20.3c-4.2 0-7.5-1.2-9.9-3.5s-3.6-5.5-3.6-9.5 1.2-7.4 3.7-9.7 5.9-3.5 10.1-3.5 7.5 1.2 9.9 3.5a12.3 12.3 0 013.6 9.3c0 4.1-1.2 7.4-3.7 9.8s-5.9 3.6-10.1 3.6zm.2-20.3a5.1 5.1 0 00-4.3 1.9 8.4 8.4 0 00-1.5 5.3c0 4.8 2 7.2 5.9 7.2s5.6-2.5 5.6-7.4-2-7-5.7-7z"/><path d="M187.4 32.4h-9.8v27.5h-8.4V32.4h-9.8v-6.9h28v6.9z"/><path d="M21.4 74.2c-7.9-.7-14.2-4-18.3-10.9s-4-14-.6-21C-4.9 27.9 5 11.1 21.4 10.1 25.9 3.6 32.2 0 40.2 0s14.2 3.6 18.7 10a22 22 0 0118.9 32.1c3.4 7.1 3.5 14.2-.6 21.2S66.8 73.5 59 74.2a22.5 22.5 0 01-37.6 0z" fill="url(#a)"/><path d="M26.1 66.2c-7.1 1.2-12.8-.8-16.5-7-2.6-4.3-2.9-11.3 2.3-17-4.7-5.6-5.8-11.6-1.8-18S17.9 17.5 26 18c2.4-6.5 7-10.5 14.1-10.5S51.8 11.3 54.3 18c7.6-1.2 13.7 1.1 17 8.2s1.3 11.1-2.9 15.9c4.8 5.6 5.8 11.7 1.7 18.1-3.1 4.9-8 6.7-15.9 6-2.4 6.6-7 10.5-14.1 10.5s-11.6-3.8-14-10.5zm14.1 3.2a6.9 6.9 0 006.7-4.7 6.8 6.8 0 00-2.4-7.7l-1.4-1.2a4.5 4.5 0 012.3-7.5c2.9-.7 5.4 1.3 5.8 4.6a7 7 0 008.4 6.2 6.9 6.9 0 005.3-8.7 7 7 0 00-9.4-4.4l-1.6.6a4.8 4.8 0 01-5.1-1.9 4.2 4.2 0 010-5 4.8 4.8 0 015.1-1.9l1.9.7a7 7 0 008.4-3A6.8 6.8 0 0063 27a7 7 0 00-9-.4 6.9 6.9 0 00-2.8 5.3 4.8 4.8 0 01-4.3 4.3 4.9 4.9 0 01-4.7-2.7 4.7 4.7 0 011.7-5.7l1.1-.9a6.7 6.7 0 00.1-9.8 7.1 7.1 0 00-10.2.4 6.8 6.8 0 001 9.9 10.7 10.7 0 011.6 1.4 4.7 4.7 0 01.4 5.4 4.6 4.6 0 01-5 2c-2.6-.7-3.4-2.6-3.8-5a6.9 6.9 0 10-13.5 3 7 7 0 009.4 4.3l1.9-.6a4.6 4.6 0 015.5 3.9 4.4 4.4 0 01-3.9 5 10.2 10.2 0 01-3.8-.7 7.1 7.1 0 00-9.2 4.5 6.8 6.8 0 005.1 8.7 7 7 0 008.5-5.6 9 9 0 01.3-1.6 4.7 4.7 0 014.9-3.7 4.5 4.5 0 014.2 4.2 4.9 4.9 0 01-2.5 4.6 6.7 6.7 0 00-2.6 7.7 7.4 7.4 0 006.8 4.5z" fill="#fff"/></svg>