<svg width="135" height="50" fill="none" xmlns="http://www.w3.org/2000/svg"><path d="M11.934 12.036c0 2.092-.478 3.762-1.435 5.012-.956 1.242-2.24 1.862-3.852 1.862-1.494 0-2.69-.487-3.588-1.462v6.412H0V5.137h2.82l.126 1.375c.898-1.083 2.119-1.625 3.663-1.625 1.662 0 2.963.617 3.903 1.85.948 1.225 1.422 2.929 1.422 5.112v.187zm-3.046-.262c0-1.35-.273-2.42-.818-3.212-.538-.792-1.31-1.188-2.317-1.188-1.25 0-2.148.513-2.694 1.537v6c.554 1.05 1.46 1.575 2.72 1.575.973 0 1.732-.388 2.278-1.163.554-.783.83-1.966.83-3.55zm13.707 7.136c-1.938 0-3.512-.604-4.72-1.812-1.2-1.216-1.8-2.833-1.8-4.85v-.374c0-1.35.26-2.554.78-3.612.529-1.067 1.267-1.896 2.215-2.488.949-.591 2.006-.887 3.173-.887 1.855 0 3.286.587 4.293 1.762 1.015 1.175 1.523 2.837 1.523 4.987v1.225h-8.9c.092 1.117.465 2 1.12 2.65.663.65 1.494.975 2.493.975 1.401 0 2.543-.563 3.424-1.688l1.649 1.563a5.532 5.532 0 01-2.19 1.887c-.907.441-1.927.662-3.06.662zM22.23 7.324c-.839 0-1.519.292-2.04.875-.511.583-.838 1.396-.981 2.437h5.829v-.225c-.067-1.016-.34-1.783-.819-2.3-.478-.524-1.141-.787-1.989-.787zm13.116-2.187l.088 1.562c1.007-1.208 2.33-1.812 3.966-1.812 2.837 0 4.28 1.612 4.33 4.837v8.936h-3.059V9.9c0-.858-.189-1.492-.566-1.9-.37-.417-.978-.625-1.826-.625-1.233 0-2.152.554-2.757 1.662v9.624h-3.059V5.137h2.883zm13.04 6.662c0-2.1.495-3.775 1.486-5.025.999-1.258 2.32-1.887 3.965-1.887 1.553 0 2.774.537 3.664 1.612l.138-1.362h2.757v13.11c0 1.776-.558 3.176-1.674 4.2-1.108 1.025-2.606 1.538-4.494 1.538a7.28 7.28 0 01-2.934-.625c-.948-.408-1.67-.946-2.165-1.613l1.448-1.824c.94 1.108 2.098 1.662 3.474 1.662 1.016 0 1.817-.275 2.405-.825.587-.542.881-1.341.881-2.4v-.912c-.881.975-2.056 1.462-3.525 1.462-1.594 0-2.9-.629-3.915-1.887-1.007-1.258-1.51-3-1.51-5.224zm3.047.262c0 1.358.277 2.429.83 3.212.563.775 1.34 1.163 2.33 1.163 1.233 0 2.148-.525 2.744-1.575V8.91c-.579-1.024-1.485-1.537-2.72-1.537-1.006 0-1.79.396-2.353 1.188-.554.791-.831 1.958-.831 3.5zm22.432 5.274c-.898 1.05-2.174 1.575-3.828 1.575-1.477 0-2.597-.429-3.36-1.287-.756-.858-1.134-2.1-1.134-3.725V5.137h3.06v8.724c0 1.716.717 2.575 2.152 2.575 1.486 0 2.489-.53 3.009-1.588V5.137h3.059V18.66H73.94l-.075-1.325zm11.391 1.325h-3.06V5.137h3.06V18.66zM82.008 1.625c0-.467.147-.854.44-1.163.303-.308.73-.462 1.284-.462s.982.154 1.284.462c.303.309.454.696.454 1.163 0 .458-.151.841-.454 1.15-.302.3-.73.45-1.284.45-.553 0-.981-.15-1.284-.45-.293-.309-.44-.692-.44-1.15zM93.5 5.137l.088 1.562c1.007-1.208 2.329-1.812 3.965-1.812 2.837 0 4.28 1.612 4.331 4.837v8.936h-3.06V9.9c0-.858-.188-1.492-.566-1.9-.37-.417-.978-.625-1.825-.625-1.234 0-2.153.554-2.757 1.662v9.624h-3.06V5.137H93.5zm19.574 13.773c-1.939 0-3.513-.604-4.721-1.812-1.201-1.216-1.801-2.833-1.801-4.85v-.374c0-1.35.261-2.554.781-3.612.529-1.067 1.267-1.896 2.216-2.488.948-.591 2.005-.887 3.172-.887 1.855 0 3.286.587 4.293 1.762 1.015 1.175 1.523 2.837 1.523 4.987v1.225h-8.9c.092 1.117.465 2 1.12 2.65.663.65 1.494.975 2.493.975 1.401 0 2.543-.563 3.424-1.688l1.649 1.563a5.533 5.533 0 01-2.19 1.887c-.907.441-1.926.662-3.059.662zm-.366-11.586c-.839 0-1.519.292-2.039.875-.512.583-.839 1.396-.982 2.437h5.829v-.225c-.067-1.016-.34-1.783-.819-2.3-.478-.524-1.141-.787-1.989-.787zm17.913 7.662c0-.542-.227-.954-.68-1.238-.445-.283-1.188-.533-2.228-.75-1.041-.216-1.91-.491-2.606-.824-1.528-.734-2.292-1.796-2.292-3.188 0-1.166.496-2.141 1.486-2.924.99-.783 2.249-1.175 3.777-1.175 1.628 0 2.941.4 3.94 1.2 1.007.8 1.511 1.837 1.511 3.112h-3.059a1.85 1.85 0 00-.655-1.45c-.436-.391-1.016-.587-1.737-.587-.672 0-1.221.154-1.65.462a1.46 1.46 0 00-.629 1.237c0 .467.197.83.592 1.088.394.258 1.191.52 2.392.787 1.2.259 2.14.571 2.82.938.688.358 1.196.791 1.523 1.3.336.508.503 1.124.503 1.85 0 1.216-.507 2.203-1.523 2.961-1.015.75-2.346 1.125-3.991 1.125-1.116 0-2.11-.2-2.983-.6-.873-.4-1.553-.95-2.04-1.65-.486-.7-.73-1.453-.73-2.262h2.971c.042.717.315 1.271.819 1.663.503.383 1.17.575 2.001.575.806 0 1.419-.15 1.838-.45.42-.309.63-.709.63-1.2zM6.084 42.012l1.507-.653v.746a3.36 3.36 0 01-1.036 2.48c-.69.684-1.525 1.026-2.505 1.026s-1.818-.342-2.515-1.026C.838 43.901.49 43.075.49 42.105v-6.284l1.507-.653v6.91c.012.577.213 1.056.603 1.435.401.392.904.587 1.506.587.528 0 .99-.211 1.385-.634.396-.422.593-.907.593-1.454zM.358 33.63A1.204 1.204 0 010 32.753c0-.341.12-.63.358-.867.239-.242.527-.363.866-.363.34 0 .628.121.867.363.239.237.358.526.358.868 0 .341-.12.634-.358.876a1.186 1.186 0 01-.867.354c-.339 0-.627-.118-.866-.354zm27.139 9.24c0 .205.082.416.245.634.302.397.782.596 1.441.596.402 0 .757-.093 1.064-.28l.566 1.408a3.475 3.475 0 01-1.63.383c-.942 0-1.777-.342-2.505-1.026-.49-.497-.735-1.069-.735-1.715v-.075c0-1.162.6-1.986 1.8-2.47l3.833-1.558c0-.59-.198-1.084-.594-1.482-.395-.404-.895-.606-1.497-.606-.528 0-.992.195-1.394.587-.39.38-.59.858-.603 1.436v.13l-1.507.662v-.82c0-.87.377-1.703 1.13-2.499.64-.671 1.45-1.007 2.43-1.007.98 0 1.815.342 2.506 1.026a3.361 3.361 0 011.036 2.48v6.284l-1.507.653v-5.212l-3.1 1.25c-.652.304-.979.71-.979 1.22zm29.57 2.936v-.83c-.597.423-1.281.635-2.054.635-.98 0-1.814-.342-2.505-1.026a3.361 3.361 0 01-1.036-2.48v-3.431c0-.97.345-1.796 1.036-2.48.69-.684 1.526-1.026 2.505-1.026.98 0 1.818.342 2.515 1.026.697.684 1.046 1.51 1.046 2.48v7.16c0 .97-.349 1.797-1.046 2.48a3.462 3.462 0 01-2.515 1.026c-.98 0-1.814-.342-2.505-1.026a3.36 3.36 0 01-.895-1.473l1.498-.317c.1.268.267.507.5.718.432.392.919.588 1.459.588.527 0 .992-.196 1.394-.588.39-.379.59-.857.603-1.435zm-4.088-3.729c0 .572.21 1.05.631 1.436.427.392.914.587 1.46.587.527 0 .992-.196 1.394-.587.39-.38.59-.858.603-1.436v-3.375c-.013-.578-.214-1.057-.603-1.436-.402-.392-.904-.587-1.507-.587-.528 0-.989.195-1.385.587a1.91 1.91 0 00-.593 1.38v3.431zM80.561 44.1c.527 0 .992-.196 1.394-.587.39-.38.59-.858.603-1.436v-.13l1.507-.662v.82c0 .87-.377 1.703-1.13 2.499-.64.671-1.45 1.007-2.43 1.007-.98 0-1.815-.342-2.506-1.026a3.361 3.361 0 01-1.036-2.48v-3.431c0-.97.346-1.796 1.036-2.48.69-.684 1.526-1.026 2.506-1.026.941 0 1.78.342 2.514 1.026.697.646 1.046 1.473 1.046 2.48v.876l-5.595 2.462c0 .59.198 1.087.594 1.492.395.397.894.596 1.497.596zm-.113-7.421c-.527 0-.989.195-1.384.587a1.91 1.91 0 00-.594 1.408v1.706l4.078-1.8a1.932 1.932 0 00-.593-1.314c-.402-.392-.904-.587-1.507-.587zm21.178 8.931v-7.906c0-.696.251-1.293.753-1.79a2.49 2.49 0 011.818-.746c.734 0 1.34.243 1.818.728a2.51 2.51 0 011.808-.728c.753 0 1.366.243 1.837.728.477.49.719 1.097.725 1.818v7.244l-1.507.653.009-7.86c0-.31-.103-.575-.311-.793a.981.981 0 00-.734-.326c-.295 0-.547.109-.754.326a1.1 1.1 0 00-.32.784v.009l-.009 7.207-1.507.653.009-7.86c0-.31-.104-.575-.311-.793a.981.981 0 00-.734-.326c-.289 0-.54.109-.754.326-.213.218-.32.482-.32.793l-.01 7.207-1.506.653zm29.936-1.51c.559 0 1.021-.186 1.385-.56.364-.384.546-.813.546-1.286 0-.416-.182-.81-.546-1.184-.371-.373-.873-.575-1.507-.606-.779-.037-1.397-.27-1.856-.7-.445-.416-.712-1.012-.8-1.79a1.35 1.35 0 01-.01-.167c.032-.678.308-1.28.829-1.809a2.608 2.608 0 011.95-.83c.81 0 1.46.277 1.949.83.327.373.581.867.763 1.483l-1.365.596c-.101-.41-.255-.736-.462-.979a1.155 1.155 0 00-.895-.382c-.345 0-.646.127-.904.382-.238.236-.358.504-.358.802v.047c0 .298.113.556.339.774.208.205.509.329.905.373 1.092.124 1.93.456 2.514.997.641.61.961 1.352.961 2.228v.028c-.013.833-.323 1.58-.932 2.238-.641.684-1.476 1.026-2.506 1.026-.986 0-1.796-.336-2.43-1.007-.709-.74-1.086-1.573-1.13-2.499l-.009-.093 1.507-.653.009.718c.006.578.204 1.057.593 1.436.402.392.889.587 1.46.587z" fill="#EC5D0C"/></svg>