<svg xmlns="http://www.w3.org/2000/svg" viewBox="0 0 652 652"><path d="M606 262.2h-.4c-.4 0-.9.4-.9.9-.4 6.2-4.9 23.9-36.3 48.3-62.5 49.2-172.7 108.1-202 123.6-1.3.4-2.2.4-3.1 0-.9-.9 0-2.2 0-2.7l31-42.1s12.8-14.6 7.1-20.8c-3.5-3.5-21.3-.4-21.3-.4s-145.7 20.4-257.8-3.5c0 0-.4 0-.4.4v.4c24.4 7.1 112.5 29.7 239.2 23 .9 0 1.8.9 1.8 2.2 0 .4 0 .9-.4 1.3-6.6 8.4-24.4 30.6-53.2 60.7-7.1 8-11.5 12.4-5.8 17.7 5.3 4.4 14.6 0 14.6 0l79.7-38.1s116.5-56.7 166.5-93c64.7-44.6 47.5-71.7 41.7-77.9m-389.8-14.6c-4 0-7.1-1.3-9.3-4-2.2-2.7-2.7-6.2-1.8-10.6 2.2-7.5 9.7-13.7 17.7-13.7 4 0 7.1 1.3 9.3 4 2.2 2.7 2.7 6.2 1.8 10.2-2.2 8.4-9.7 14.1-17.7 14.1zm124.5 107.2c-4.4 0-8.4-.4-12-1.3-7.5-2.2-12.8-7.1-15.5-14.2-4.9-12.8 0-30.6 6.6-41.6 0-.4 19-36.3 64.7-43h3.5c7.5 0 12.8 2.2 16.4 6.2 4.9 6.2 2.7 14.2 2.7 14.6-.4.9-6.6 27.9-55.8 38.1-5.3.9-8.9.9-11.1.9H338c-.9 2.2-3.1 8.9-.9 14.6 1.3 3.1 4 5.8 8 7.5 2.7.9 6.2 1.3 9.3 1.3 19.5 0 39-17.7 39-18.2 0 0 1.3-.9 4.4-4h.4c.4 0 .9-.4 1.3-.4.9 0 1.8.4 2.2.9.4.4.9 1.8.9 2.7 0 .4 0 .9-.4 1.8-.9 2.2-4.9 10.6-22.1 22.6-8 4.9-15.9 8.4-24.4 10.2-5.7.9-10.6 1.3-15 1.3zm35.4-83.3h-2.2c-5.8.4-11.5 2.7-17.3 7.1-10.6 8-15.9 19.5-15.9 19.5-.4.4-.4 1.3 0 2.2.4.9 1.8 1.3 3.5 1.3h1.3c4.9 0 12.4-.4 23-5.8 5.8-3.1 9.7-6.6 12-11.1 1.8-3.5 2.2-6.6 2.2-6.6s.4-2.7-1.3-4.9c-.4-.8-2.6-1.7-5.3-1.7zm43.4 77.1c-4.9-.4-8.4-4.4-8.4-8.9 0-1.3.4-2.7.9-4 .9-1.3 5.8-10.2 58.5-106.7.4-.4.4-.9.9-1.3l.4-.4c3.1-4.4 8-7.1 13.3-7.5h2.2c4.9.4 8.4 4.4 8.4 8.9 0 1.3-.4 2.7-.9 4-.9 1.3-5.8 10.2-58.5 106.7-.4.4-.4.9-.9 1.3l-.4.4c-3.1 4.4-8 7.1-13.3 7.5h-2.2zm-169.2 6.2c-8.4 0-16.4-4.4-20.8-12l-1.3-2.7c-2.2-6.6-.9-13.7 0-16.8.4-2.7.9-3.1 11.5-22.6 3.1-5.8 6.2-11.5 11.5-21.7h-18.6c-.4 0-.9 0-1.3-.4s-.9-.4-1.3-.9c0-.4-.4-.4-.4-.9-.4-.9-.4-2.7 0-3.5l2.7-4.9c.9-1.8 2.2-3.5 4-5.3 2.7-2.7 5.8-4 9.3-4.4h16.8l13.3-24.4c.4-.4.4-.9.9-1.3l.4-.4c3.1-4.4 8-7.1 13.3-7.5h2.2c4.9.4 8.4 4.4 8.4 8.9 0 1.3-.4 2.7-.9 4-.4.9-12 21.3-12 21.3h23.9c.9 0 1.8.4 2.7.9.4.4.4.4.4.9.4.9.9 2.7 0 3.5 0 0-4 7.1-4.4 7.5-2.7 4-6.6 6.2-11.1 6.6h-22.1l-23 42.1s-4.9 8.4-3.1 13.3c.4 1.3 1.3 2.2 3.1 3.1 1.8.4 3.5.9 5.8.9 7.5 0 16.8-4.4 26.6-12l.4-.4c1.3-.9 2.7-1.8 3.5-2.2h.4c.4 0 .9-.4 1.3-.4 1.8 0 3.1 1.3 3.1 3.1 0 .4 0 .9-.4 1.3l-1.8 3.1c-4 7.1-9.7 12.8-16.8 17.3-6.2 4-13.7 5.8-21.3 6.2h-4.9v.7zm-90.3-6.2c-4.9-.4-8.4-4.4-8.4-8.9 0-1.3.4-2.7.9-4 .4-.9 37.2-68.2 37.2-68.2.4-.4.4-.9.9-1.3l.4-.4c3.1-4.4 8-7.1 13.3-7.5h2.2c4.9.4 8.4 4.4 8.4 8.9 0 1.3-.4 2.7-.9 4-.4.9-37.2 68.2-37.2 68.2-.4.4-.4.9-.9 1.3l-.4.4c-3.1 4.4-8 7.1-13.3 7.5H160zm329.1-151.5c.4 0 .4 0 0 0 .4-.4 0-.4 0-.4-44.7-11.5-85.9-16.4-127.6-19-148.4-8.9-273.3 22.6-322 60.7C5.8 264 12 289.3 14.7 296.3l.4.4c.4 0 .4 0 .4-.4 1.3-8 12-40.3 86.4-67.3 34.1-11.1 98.8-35 219.2-40.7 84.3-1.8 147.6 7.1 168 8.8z" fill="red"/></svg>