<svg width="18" height="18" fill="none" xmlns="http://www.w3.org/2000/svg"><path d="M9 0a9 9 0 100 18A9 9 0 109 0zM6.797 12.73H4.974V6.865h1.823v5.865zm-.923-6.585c-.575 0-.947-.407-.947-.912 0-.515.383-.91.97-.91.589 0 .949.395.96.91 0 .505-.371.912-.983.912zm7.58 6.585H11.63V9.48c0-.757-.265-1.27-.924-1.27-.503 0-.802.347-.934.682-.05.12-.061.288-.061.456v3.381H7.888V8.736c0-.733-.023-1.345-.048-1.872h1.584l.083.815h.037c.24-.382.828-.947 1.811-.947 1.2 0 2.098.804 2.098 2.53v3.468z" fill="#fff"/></svg>