<svg width="18" height="18" fill="none" xmlns="http://www.w3.org/2000/svg"><path d="M9 0a9 9 0 10.001 18.001A9 9 0 009 0zm4.325 6.784c.006.095.006.193.006.29 0 2.949-2.246 6.346-6.35 6.346a6.328 6.328 0 01-3.427-1c.18.02.353.027.538.027a4.476 4.476 0 002.77-.952 2.232 2.232 0 01-2.085-1.547c.344.05.653.05 1.007-.04a2.23 2.23 0 01-1.786-2.19V7.69c.295.167.643.27 1.006.283a2.233 2.233 0 01-.69-2.98 6.334 6.334 0 004.6 2.332c-.316-1.517.817-2.745 2.18-2.745.642 0 1.22.27 1.629.703a4.407 4.407 0 001.416-.536 2.22 2.22 0 01-.98 1.228c.45-.049.883-.173 1.285-.348a4.676 4.676 0 01-1.119 1.157z" fill="#fff"/></svg>