<svg width="18" height="18" fill="none" xmlns="http://www.w3.org/2000/svg"><path d="M11.029 8.861a3.259 3.259 0 00-.789-.37 10.37 10.37 0 00-1.019-.275 15.57 15.57 0 01-.636-.161 1.903 1.903 0 01-.372-.148.834.834 0 01-.274-.215.431.431 0 01-.092-.276c0-.177.094-.325.286-.454.199-.134.468-.202.798-.202.356 0 .615.06.77.181.159.125.297.302.412.527.1.176.188.298.275.375.093.085.226.129.397.129a.62.62 0 00.473-.204.655.655 0 00.19-.457c0-.177-.05-.36-.145-.54a1.697 1.697 0 00-.447-.519 2.33 2.33 0 00-.76-.39 3.534 3.534 0 00-1.075-.146c-.516 0-.97.073-1.353.22-.387.147-.688.363-.895.64a1.566 1.566 0 00-.313.959c0 .375.1.693.298.948a2 2 0 00.792.598c.324.14.73.265 1.208.37.35.076.636.149.845.216.2.064.366.158.492.279a.593.593 0 01.177.45c0 .237-.111.43-.34.592-.235.165-.548.248-.928.248-.278 0-.502-.04-.67-.123a1.028 1.028 0 01-.386-.306 2.404 2.404 0 01-.264-.483 1.09 1.09 0 00-.271-.407.59.59 0 00-.405-.144.671.671 0 00-.482.182.608.608 0 00-.192.45c0 .276.1.566.295.854.194.29.45.523.76.694.433.236.988.355 1.65.355.55 0 1.034-.088 1.44-.26.407-.174.722-.42.935-.73.214-.31.326-.68.323-1.058 0-.326-.063-.607-.188-.835a1.608 1.608 0 00-.52-.564zM9 0a9 9 0 100 18A9 9 0 109 0zm2.157 14.04a2.6 2.6 0 01-1.264-.327c-.278.054-.56.08-.843.08-2.544 0-4.607-2.124-4.607-4.74 0-.329.033-.647.094-.955a2.782 2.782 0 01-.368-1.388c0-1.518 1.196-2.75 2.673-2.75.522 0 1.009.155 1.421.422.255-.046.52-.07.787-.07 2.545 0 4.607 2.123 4.607 4.741 0 .348-.036.689-.105 1.017.177.368.277.782.277 1.221 0 1.517-1.196 2.748-2.672 2.748z" fill="#fff"/></svg>