<svg width="18" height="18" fill="none" xmlns="http://www.w3.org/2000/svg"><path d="M11.813 9a2.812 2.812 0 11-5.626 0c0-.16.017-.317.046-.469H5.25v3.747c0 .261.21.472.472.472h6.557a.471.471 0 00.471-.472V8.531h-.983c.029.152.046.309.046.469zM9 10.875a1.876 1.876 0 10-.001-3.753A1.876 1.876 0 009 10.875zm2.25-3.844h1.124a.282.282 0 00.282-.281V5.626a.282.282 0 00-.282-.282H11.25a.282.282 0 00-.282.282V6.75a.284.284 0 00.282.281zM9 0a9 9 0 100 18A9 9 0 009 0zm4.688 12.646c0 .573-.47 1.041-1.042 1.041H5.354a1.045 1.045 0 01-1.042-1.041V5.354c0-.573.47-1.042 1.042-1.042h7.292c.573 0 1.041.47 1.041 1.042v7.292z" fill="#fff"/></svg>