<svg xmlns="http://www.w3.org/2000/svg" viewBox="0 0 135 49.3"><path d="M11.9 12a7.6 7.6 0 01-1.4 5 4.5 4.5 0 01-3.9 1.9 4.5 4.5 0 01-3.5-1.5v6.5H0V5.1h2.8v1.4a4.6 4.6 0 013.8-1.6 4.6 4.6 0 013.9 1.8 8.1 8.1 0 011.4 5.1zm-3-.2a5.8 5.8 0 00-.8-3.2 2.7 2.7 0 00-2.3-1.2 2.7 2.7 0 00-2.7 1.5v6a2.7 2.7 0 002.7 1.6 2.7 2.7 0 002.3-1.2 6.5 6.5 0 00.8-3.5zm13.7 7.1a6.4 6.4 0 01-4.7-1.8 6.6 6.6 0 01-1.8-4.9v-.3a6.8 6.8 0 01.8-3.6 5.4 5.4 0 012.2-2.5 5.6 5.6 0 013.1-.9 5.5 5.5 0 014.3 1.7 7.2 7.2 0 011.6 5v1.3h-8.9a3.7 3.7 0 001.1 2.6 3.2 3.2 0 002.5 1 4.2 4.2 0 003.4-1.7l1.6 1.6a4.6 4.6 0 01-2.1 1.8 6.7 6.7 0 01-3.1.7zm-.4-11.6a2.5 2.5 0 00-2 .9 5.3 5.3 0 00-1 2.4H25v-.2a3.2 3.2 0 00-.8-2.3 2.6 2.6 0 00-2-.8zm13.1-2.2v1.6a5 5 0 014-1.8c2.8 0 4.3 1.6 4.3 4.8v9h-3V9.9a2.5 2.5 0 00-.5-1.9 2.4 2.4 0 00-1.8-.6A2.9 2.9 0 0035.5 9v9.7h-3V5.1zm13.1 6.7a7.6 7.6 0 011.5-5 4.7 4.7 0 013.9-1.9 4.4 4.4 0 013.7 1.6V5.1h2.8v13.1a5.4 5.4 0 01-1.7 4.2 6.1 6.1 0 01-4.4 1.6 7.5 7.5 0 01-2.9-.6 4.8 4.8 0 01-2.2-1.7l1.5-1.8a4.4 4.4 0 003.5 1.7 3.6 3.6 0 002.4-.8 3.6 3.6 0 00.8-2.4v-1a4.3 4.3 0 01-3.5 1.5 4.7 4.7 0 01-3.9-1.9 8.1 8.1 0 01-1.5-5.2zm3 .3a5.3 5.3 0 00.9 3.2 2.7 2.7 0 002.3 1.1 2.9 2.9 0 002.7-1.5v-6a2.7 2.7 0 00-2.7-1.5 2.6 2.6 0 00-2.3 1.2 5.6 5.6 0 00-.9 3.5zm22.5 5.2a4.7 4.7 0 01-3.9 1.6 4 4 0 01-3.3-1.3 5.1 5.1 0 01-1.2-3.7V5.1h3.1v8.8c0 1.7.7 2.5 2.2 2.5a3.1 3.1 0 003-1.6V5.1h3v13.6h-2.9zm11.4 1.4h-3.1V5.1h3.1zM82 1.6a2.1 2.1 0 01.4-1.1 2.1 2.1 0 011.3-.5 1.7 1.7 0 011.3.5 1.6 1.6 0 01.5 1.1 1.7 1.7 0 01-.5 1.2 1.7 1.7 0 01-1.3.4 2 2 0 01-1.3-.4 2.1 2.1 0 01-.4-1.2zm11.5 3.5v1.6a4.9 4.9 0 014-1.8c2.8 0 4.2 1.6 4.3 4.8v9h-3V9.9a3.1 3.1 0 00-.5-1.9 2.5 2.5 0 00-1.9-.6A2.9 2.9 0 0093.7 9v9.7h-3.1V5.1zm19.6 13.8a6.3 6.3 0 01-4.7-1.8 6.6 6.6 0 01-1.8-4.9v-.3a8 8 0 01.7-3.6 6.7 6.7 0 012.2-2.5 6.2 6.2 0 013.2-.9 5.5 5.5 0 014.3 1.7 7.6 7.6 0 011.5 5v1.3h-8.9a3.8 3.8 0 001.2 2.6 3.2 3.2 0 002.5 1 4.2 4.2 0 003.4-1.7l1.6 1.6a4.9 4.9 0 01-2.2 1.8 6 6 0 01-3 .7zm-.4-11.6a2.5 2.5 0 00-2 .9 4.4 4.4 0 00-1 2.4h5.8v-.2a3.7 3.7 0 00-.8-2.3 2.6 2.6 0 00-2-.8zm17.9 7.7a1.4 1.4 0 00-.7-1.3 8 8 0 00-2.2-.7 13.4 13.4 0 01-2.6-.8c-1.5-.8-2.3-1.8-2.3-3.2a3.4 3.4 0 011.5-2.9 6 6 0 013.8-1.2 6.1 6.1 0 013.9 1.2 3.7 3.7 0 011.5 3.1h-3a1.8 1.8 0 00-.7-1.5 2.9 2.9 0 00-1.7-.5 3.1 3.1 0 00-1.7.4 1.5 1.5 0 00-.6 1.3 1.1 1.1 0 00.6 1 5.9 5.9 0 002.4.8 11.1 11.1 0 012.8 1 3.2 3.2 0 011.5 1.3 2.7 2.7 0 01.5 1.8 3.7 3.7 0 01-1.5 3 6.8 6.8 0 01-4 1.1 7.3 7.3 0 01-3-.6 5.3 5.3 0 01-2-1.6 3.9 3.9 0 01-.7-2.3h2.9a2.2 2.2 0 00.9 1.7 3.7 3.7 0 002 .5 3 3 0 001.8-.4 1.4 1.4 0 00.6-1.2zM6.1 42l1.5-.6v.7a3.7 3.7 0 01-1 2.5 3.5 3.5 0 01-2.6 1 3.5 3.5 0 01-2.5-1 3.3 3.3 0 01-1-2.5v-6.3l1.5-.6v6.9a1.8 1.8 0 00.6 1.4 2 2 0 001.5.6 2 2 0 001.4-.6 2.2 2.2 0 00.6-1.5zM.4 33.6a.9.9 0 01-.4-.8 1 1 0 01.4-.9.9.9 0 01.8-.4 1 1 0 01.9.4 1.2 1.2 0 01.3.9 1.1 1.1 0 01-.3.8 1 1 0 01-.9.4.9.9 0 01-.8-.4zm27.1 9.3a1.4 1.4 0 00.2.6 1.8 1.8 0 001.5.6 1.7 1.7 0 001-.3l.6 1.4a2.9 2.9 0 01-1.6.4 3.3 3.3 0 01-2.5-1 2.5 2.5 0 01-.8-1.7 2.5 2.5 0 011.8-2.5l3.9-1.5a2.1 2.1 0 00-2.1-2.1 2 2 0 00-1.4.6 1.7 1.7 0 00-.6 1.4l-1.5.7v-.8a3.8 3.8 0 011.1-2.5 3.3 3.3 0 012.4-1 3.2 3.2 0 012.5 1 3.4 3.4 0 011.1 2.5V45l-1.5.6v-5.2l-3.1 1.2c-.7.4-1 .8-1 1.3zm29.6 2.9V45a3.7 3.7 0 01-2.1.6 3.4 3.4 0 01-3.5-3.5v-3.4a3.5 3.5 0 016-2.5 3.4 3.4 0 011.1 2.5v7.1a3.4 3.4 0 01-1.1 2.5 3.6 3.6 0 01-5 0 3.8 3.8 0 01-.9-1.5l1.5-.3a1.8 1.8 0 00.5.7 2 2 0 001.5.6 2 2 0 001.4-.6 1.7 1.7 0 00.6-1.4zM53 42.1a2 2 0 00.6 1.4 2 2 0 001.5.6 2 2 0 001.4-.6 1.8 1.8 0 00.6-1.4v-3.4a1.7 1.7 0 00-.6-1.4 2 2 0 00-1.5-.6 1.8 1.8 0 00-1.4.6 1.8 1.8 0 00-.6 1.3zm27.6 2a2 2 0 001.4-.6 3 3 0 00.6-1.4v-.2l1.5-.6v.8a3.5 3.5 0 01-1.2 2.5 3 3 0 01-2.4 1 3.4 3.4 0 01-3.5-3.5v-3.4a3.4 3.4 0 013.5-3.5 3.5 3.5 0 012.5 1 3.3 3.3 0 011.1 2.5v.9L78.5 42a2.1 2.1 0 002.1 2.1zm-.2-7.4a1.8 1.8 0 00-1.3.6 1.8 1.8 0 00-.6 1.4v1.7l4-1.8a1.9 1.9 0 00-.5-1.3 2.1 2.1 0 00-1.6-.6zm21.2 8.9v-7.9a2.5 2.5 0 01.8-1.8 2.7 2.7 0 013.6 0 2.4 2.4 0 011.8-.7 2.5 2.5 0 011.9.7 2.9 2.9 0 01.7 1.8V45l-1.5.6v-7.8a1 1 0 00-.3-.8.9.9 0 00-.8-.4.8.8 0 00-.7.4.9.9 0 00-.3.7V45l-1.5.6v-7.8a.8.8 0 00-.4-.8.8.8 0 00-1.4 0 .8.8 0 00-.4.8V45zm30-1.5a1.6 1.6 0 001.3-.6 1.6 1.6 0 00.6-1.2 1.4 1.4 0 00-.6-1.2 1.8 1.8 0 00-1.5-.6 3.3 3.3 0 01-1.8-.7 2.7 2.7 0 01-.8-1.8v-.2a2.5 2.5 0 01.8-1.8 2.4 2.4 0 012-.8 2.2 2.2 0 011.9.8 5.3 5.3 0 01.8 1.5l-1.4.6a2.3 2.3 0 00-.5-1 1 1 0 00-.9-.4 1.2 1.2 0 00-.9.4 1.1 1.1 0 00-.3.8 1.1 1.1 0 00.3.8 1.9 1.9 0 00.9.4 4.1 4.1 0 012.5 1 2.7 2.7 0 011 2.2 3.5 3.5 0 01-5.9 2.3 3.6 3.6 0 01-1.1-2.5l1.5-.6v.7a1.8 1.8 0 00.6 1.4 2 2 0 001.5.5z" fill="#ec5d0c"/></svg>