<svg width="32" height="25" fill="none" xmlns="http://www.w3.org/2000/svg"><path d="M5 0h21.667a5 5 0 015 5v15a5 5 0 01-5 5H5a5 5 0 01-5-5V5a5 5 0 015-5zm0 1.667A3.333 3.333 0 001.667 5v1.667H30V5a3.333 3.333 0 00-3.333-3.333H5zM1.667 20A3.333 3.333 0 005 23.333h21.667A3.333 3.333 0 0030 20v-8.333H1.667V20zM5 18.333h6.667V20H5v-1.667zm10 0h5V20h-5v-1.667zm-13.333-10V10H30V8.333H1.667z" fill="#124F48"/><path d="M5 0h21.667a5 5 0 015 5v15a5 5 0 01-5 5H5a5 5 0 01-5-5V5a5 5 0 015-5zm0 1.667A3.333 3.333 0 001.667 5v1.667H30V5a3.333 3.333 0 00-3.333-3.333H5zM1.667 20A3.333 3.333 0 005 23.333h21.667A3.333 3.333 0 0030 20v-8.333H1.667V20zM5 18.333h6.667V20H5v-1.667zm10 0h5V20h-5v-1.667zm-13.333-10V10H30V8.333H1.667z"/></svg>