<?xml version="1.0" encoding="utf-8"?><svg viewBox="0 0 104 104" xmlns="http://www.w3.org/2000/svg" xmlns:xlink="http://www.w3.org/1999/xlink"><style>:root>svg{display:none}:root>svg:target{display:block}</style><svg fill="none" viewBox="0 0 23 42" id="logo" xmlns="http://www.w3.org/2000/svg"><path d="M8 38h11a4 4 0 004-4V8a3 3 0 00-3-3h-9a3 3 0 00-3 3v30z" fill="#124F48"/><path d="M17 13a3 3 0 00-3-3H3a3 3 0 00-3 3v20h15a2 2 0 002-2V13z" fill="#FF823B"/><circle r="5.5" transform="matrix(1 0 0 -1 8.5 21.5)" fill="#124F48"/></svg><svg fill="none" viewBox="0 0 18 18" id="logo-fb" xmlns="http://www.w3.org/2000/svg"><path d="M9 0a9 9 0 100 18A9 9 0 109 0zm2.132 6.22H9.779c-.16 0-.338.21-.338.49v.978h1.692l-.256 1.393H9.44v4.182H7.844V9.08H6.396V7.688h1.448v-.82c0-1.176.816-2.13 1.935-2.13h1.353v1.481z" fill="#fff"/></svg><svg viewBox="0 0 104 104" id="logo-features-coin" xmlns="http://www.w3.org/2000/svg"><rect x=".06" y=".19" width="104" height="104" rx="14" fill="#dbeeff"/><rect x="15.06" y="15.19" width="74" height="74" rx="14" fill="#0085ff"/><path d="M60.06 46.19c0-2.17-3.66-4-8-4s-8 1.83-8 4v2c0 2.17 3.67 4 8 4s8-1.83 8-4zM52.06 59.19c-4.33 0-8-1.83-8-4v3c0 2.17 3.67 4 8 4s8-1.83 8-4v-3c0 2.17-3.66 4-8 4z" fill="#fff"/><path d="M60.06 50.19c0 2.17-3.66 4-8 4s-8-1.83-8-4v3c0 2.17 3.67 4 8 4s8-1.83 8-4z" fill="#fff"/></svg><svg viewBox="0 0 104 104" id="logo-features-diagram" xmlns="http://www.w3.org/2000/svg"><rect x=".06" y=".19" width="104" height="104" rx="14" fill="#ffefe6"/><rect x="16.06" y="15.19" width="74" height="74" rx="14" fill="#ff7527"/><rect x="41.52" y="46.34" width="5.79" height="11.58" rx="1.16" fill="#fff"/><rect x="49.62" y="35.92" width="5.79" height="22" rx="1.16" fill="#fff"/><rect x="57.73" y="42.86" width="5.79" height="15.05" rx="1.16" fill="#fff"/></svg><svg viewBox="0 0 104 104" id="logo-features-graph" xmlns="http://www.w3.org/2000/svg"><rect x=".06" y=".19" width="104" height="104" rx="14" fill="#deffe5"/><rect x="14.93" y="15.19" width="74" height="74" rx="14" fill="#198b39"/><path d="M62.29 64.19a2.77 2.77 0 002.77-2.78V42a2.78 2.78 0 00-2.77-2.78H42.84A2.79 2.79 0 0040.06 42v19.41a2.78 2.78 0 002.78 2.78z" fill="#fff"/><path fill="none" stroke="#198b39" stroke-miterlimit="10" stroke-width="2.5" d="M58.16 47.55l-2.68 5.53-5.62-2.73-2.85 5.51"/></svg><svg viewBox="0 0 104 104" id="logo-features-work" xmlns="http://www.w3.org/2000/svg"><rect width="104" height="104" rx="14" fill="#fff6d5"/><rect x="14.87" y="15" width="74" height="74" rx="14" fill="#ffc90c"/><path d="M60.3 46.32H57v-2.21a2.21 2.21 0 00-2.2-2.21h-6.6a2.2 2.2 0 00-2.2 2.21v2.21h-3.3a2.2 2.2 0 00-2.2 2.21v3.32h22v-3.32a2.21 2.21 0 00-2.2-2.21zm-5.5 0h-6.6v-2.21h6.6zM53.7 55.16h-4.4V53h-8.8v7.74a2.21 2.21 0 002.2 2.21h17.6a2.21 2.21 0 002.2-2.21V53h-8.8z" fill="#fff"/></svg><svg fill="none" viewBox="0 0 18 18" id="logo-insta" xmlns="http://www.w3.org/2000/svg"><path d="M11.813 9a2.812 2.812 0 11-5.626 0c0-.16.017-.317.046-.469H5.25v3.747c0 .261.21.472.472.472h6.557a.471.471 0 00.471-.472V8.531h-.983c.029.152.046.309.046.469zM9 10.875a1.876 1.876 0 10-.001-3.753A1.876 1.876 0 009 10.875zm2.25-3.844h1.124a.282.282 0 00.282-.281V5.626a.282.282 0 00-.282-.282H11.25a.282.282 0 00-.282.282V6.75a.284.284 0 00.282.281zM9 0a9 9 0 100 18A9 9 0 009 0zm4.688 12.646c0 .573-.47 1.041-1.042 1.041H5.354a1.045 1.045 0 01-1.042-1.041V5.354c0-.573.47-1.042 1.042-1.042h7.292c.573 0 1.041.47 1.041 1.042v7.292z" fill="#fff"/></svg><svg fill="none" viewBox="0 0 18 18" id="logo-linkedin" xmlns="http://www.w3.org/2000/svg"><path d="M9 0a9 9 0 100 18A9 9 0 109 0zM6.797 12.73H4.974V6.865h1.823v5.865zm-.923-6.585c-.575 0-.947-.407-.947-.912 0-.515.383-.91.97-.91.589 0 .949.395.96.91 0 .505-.371.912-.983.912zm7.58 6.585H11.63V9.48c0-.757-.265-1.27-.924-1.27-.503 0-.802.347-.934.682-.05.12-.061.288-.061.456v3.381H7.888V8.736c0-.733-.023-1.345-.048-1.872h1.584l.083.815h.037c.24-.382.828-.947 1.811-.947 1.2 0 2.098.804 2.098 2.53v3.468z" fill="#fff"/></svg><svg fill="none" viewBox="0 0 18 18" id="logo-skype" xmlns="http://www.w3.org/2000/svg"><path d="M11.029 8.861a3.259 3.259 0 00-.789-.37 10.37 10.37 0 00-1.019-.275c-.213-.049-.425-.103-.636-.161a1.903 1.903 0 01-.372-.148.834.834 0 01-.274-.215.431.431 0 01-.092-.276c0-.177.094-.325.286-.454.199-.134.468-.202.798-.202.356 0 .615.06.77.181.159.125.297.302.412.527.1.176.188.298.275.375.093.085.226.129.397.129a.62.62 0 00.473-.204.655.655 0 00.19-.457c0-.177-.05-.36-.145-.54a1.697 1.697 0 00-.447-.519 2.33 2.33 0 00-.76-.39 3.534 3.534 0 00-1.075-.146c-.516 0-.97.073-1.353.22-.387.147-.688.363-.895.64a1.566 1.566 0 00-.313.959c0 .375.1.693.298.948.194.252.462.452.792.598.324.14.73.265 1.208.37.35.076.636.149.845.216.2.064.366.158.492.279a.593.593 0 01.177.45c0 .237-.111.43-.34.592-.235.165-.548.248-.928.248-.278 0-.502-.04-.67-.123a1.028 1.028 0 01-.386-.306 2.404 2.404 0 01-.264-.483 1.09 1.09 0 00-.271-.407.59.59 0 00-.405-.144.671.671 0 00-.482.182.608.608 0 00-.192.45c0 .276.1.566.295.854.194.29.45.523.76.694.433.236.988.355 1.65.355.55 0 1.034-.088 1.44-.26.407-.174.722-.42.935-.73.214-.31.326-.68.323-1.058 0-.326-.063-.607-.188-.835a1.608 1.608 0 00-.52-.564zM9 0a9 9 0 100 18A9 9 0 109 0zm2.157 14.04c-.456 0-.887-.118-1.264-.327-.278.054-.56.08-.843.08-2.544 0-4.607-2.124-4.607-4.74 0-.329.033-.647.094-.955a2.782 2.782 0 01-.368-1.388c0-1.518 1.196-2.75 2.673-2.75.522 0 1.009.155 1.421.422.255-.046.52-.07.787-.07 2.545 0 4.607 2.123 4.607 4.741 0 .348-.036.689-.105 1.017.177.368.277.782.277 1.221 0 1.517-1.196 2.748-2.672 2.748z" fill="#fff"/></svg><svg fill="none" viewBox="0 0 18 18" id="logo-twitter" xmlns="http://www.w3.org/2000/svg"><path d="M9 0a9 9 0 10.001 18.001A9 9 0 009 0zm4.325 6.784c.006.095.006.193.006.29 0 2.949-2.246 6.346-6.35 6.346a6.328 6.328 0 01-3.427-1c.18.02.353.027.538.027a4.476 4.476 0 002.77-.952 2.232 2.232 0 01-2.085-1.547c.344.05.653.05 1.007-.04a2.23 2.23 0 01-1.786-2.19V7.69c.295.167.643.27 1.006.283a2.233 2.233 0 01-.69-2.98 6.334 6.334 0 004.6 2.332c-.316-1.517.817-2.745 2.18-2.745.642 0 1.22.27 1.629.703a4.407 4.407 0 001.416-.536 2.22 2.22 0 01-.98 1.228c.45-.049.883-.173 1.285-.348a4.676 4.676 0 01-1.119 1.157z" fill="#fff"/></svg></svg>