<svg xmlns="http://www.w3.org/2000/svg" viewBox="0 0 121 62.5"><title>audiomack-seeklogo3</title><path d="M25.6,62.2h-4V60.3h-.1a4.5,4.5,0,0,1-3.9,2.2c-3,0-4.5-1.7-4.5-5.2V49.7h4v7.2q0,2.7,2.1,2.7a2,2,0,0,0,1.7-.8,2.4,2.4,0,0,0,.7-1.9V49.7h4V62.2" fill="#404040"/><path d="M11.7,62.2H7.9V60.4h0A4.4,4.4,0,0,1,4,62.5a3.9,3.9,0,0,1-2.9-1A3.8,3.8,0,0,1,0,58.7c0-2.4,1.5-3.8,4.4-4.2l3.5-.4c0-1.4-.7-2.1-2.2-2.1a7.9,7.9,0,0,0-4.4,1.4V50.5a7.9,7.9,0,0,1,2.2-.8,12.4,12.4,0,0,1,2.7-.3c3.6,0,5.5,1.8,5.5,5.3Z" fill="#404040"/><path d="M7.9,57.1v-.8l-2.3.3c-1.3.2-1.9.7-1.9,1.7a1.5,1.5,0,0,0,.4,1.1,2,2,0,0,0,1.3.4A2.2,2.2,0,0,0,7.2,59a2.5,2.5,0,0,0,.7-1.9Z" fill="#fff"/><path d="M40,62.2H36V60.5h0a4.4,4.4,0,0,1-4,2,5,5,0,0,1-3.9-1.6,6.8,6.8,0,0,1-1.5-4.7,7.1,7.1,0,0,1,1.6-4.9,5.3,5.3,0,0,1,4.3-1.9A3.8,3.8,0,0,1,36,51.1h0V43.7h4V62.2Z" fill="#404040"/><path d="M43.7,47.7a2.3,2.3,0,0,1-1.6-.6,1.7,1.7,0,0,1-.7-1.4,1.9,1.9,0,0,1,.7-1.4,2.2,2.2,0,0,1,1.6-.5,2.3,2.3,0,0,1,1.7.5,1.8,1.8,0,0,1,.6,1.4,2,2,0,0,1-.6,1.5A2.9,2.9,0,0,1,43.7,47.7Z" fill="#404040"/><path d="M45.7,58a1.6,1.6,0,0,0,.4,1.2,1.2,1.2,0,0,0,1,.4h1.3v2.7a4,4,0,0,1-1.5.3H45.2a3.2,3.2,0,0,1-1.4-.2,2.8,2.8,0,0,1-1.1-.8,2.6,2.6,0,0,1-.7-1.1,4.1,4.1,0,0,1-.3-1.6V49.7h4Z" fill="#404040"/><path d="M83.3,62.2h-4V55.1q0-2.7-2.1-2.7a1.8,1.8,0,0,0-1.6.8,3.2,3.2,0,0,0-.6,2v7H71V55c0-1.8-.6-2.6-2-2.6a1.9,1.9,0,0,0-1.6.7,3.8,3.8,0,0,0-.6,2.2v6.9h-4V49.7h4v2h0A4.2,4.2,0,0,1,68.6,50a4.8,4.8,0,0,1,2.4-.6,3.7,3.7,0,0,1,3.7,2.3,5,5,0,0,1,4.4-2.3c2.8,0,4.2,1.7,4.2,5Z" fill="#404040"/><path d="M95.6,62.2H91.8V60.4h0A4.2,4.2,0,0,1,88,62.5a4,4,0,0,1-3-1,3.8,3.8,0,0,1-1.1-2.8q0-3.6,4.5-4.2l3.5-.4c0-1.4-.8-2.1-2.3-2.1a7.9,7.9,0,0,0-4.4,1.4V50.5a8.7,8.7,0,0,1,2.3-.8,10.9,10.9,0,0,1,2.6-.3c3.7,0,5.5,1.8,5.5,5.3v7.5Z" fill="#404040"/><path d="M91.9,56.3l-2.4.3c-1.3.2-1.9.7-1.9,1.7a1.3,1.3,0,0,0,.5,1.1,1.6,1.6,0,0,0,1.2.4,2.6,2.6,0,0,0,1.9-.8,2.9,2.9,0,0,0,.7-1.9v-.8Z" fill="#fff"/><path d="M107,61.8a8.2,8.2,0,0,1-3.9.7,6.4,6.4,0,0,1-4.8-1.7,6.1,6.1,0,0,1-1.8-4.5,6.7,6.7,0,0,1,1.9-5.1,7.6,7.6,0,0,1,5.3-1.8,6.9,6.9,0,0,1,3.3.6v3.3a4.7,4.7,0,0,0-2.8-.9,4,4,0,0,0-2.7.9,3.6,3.6,0,0,0-1,2.7,3.4,3.4,0,0,0,3.6,3.6,5.2,5.2,0,0,0,2.9-.9Z" fill="#404040"/><polygon points="121 62.2 116.2 62.2 112.1 56 112.1 56 112.1 62.2 108.1 62.2 108.1 43.7 112.1 43.7 112.1 55.5 112.1 55.5 115.9 49.7 120.7 49.7 116 55.6 121 62.2" fill="#404040"/><ellipse cx="54.8" cy="56" rx="7" ry="6.6" fill="#404040"/><ellipse cx="54.8" cy="56" rx="2.9" ry="3.6" fill="#fff"/><ellipse cx="33.4" cy="56" rx="2.7" ry="3.6" fill="#fff"/><path d="M30.6,16.5s1.2-.2,1.7.3.1,1.6-.5,1.6-1.2.1-1.6-.3a1,1,0,0,1,0-1.4l.4-.2m12.6,7.1h-.4c-.8-1.2-1.1-5.2-1.5-5.4s-1.8,2.2-4.6,1.9a6.7,6.7,0,0,1-3.2-1.4c.1-.9.1-3,1.9-2.3s2.9,1.5,4.5-.5,2.8-1.6,3.4-1.2.2,3.1,1.1,2.4a64.9,64.9,0,0,0,4.4-5.2s2.8-2.8,3.2.1,2.2,6.3,2.7,6.2S60.8,6.6,61.5,5.8s3.5-.6,3.4,1.3-.4,13.6-.4,13.6-.3,3.3.2,1.6a18.7,18.7,0,0,1,.7-2.2c1.4-4.4,3.7-12,4.9-15.9L71,1.8a1.9,1.9,0,0,1,.2-.7c.1-.3.1-.5.2-.6a.4.4,0,0,1,.4-.3.7.7,0,0,1,.6-.2,6.3,6.3,0,0,1,2.3.3l.6.2h.1l.2.2h0c0,.1.1.1.1.2a5.6,5.6,0,0,1,.4,3.8c-.6,5-1.1,15.4-1.1,15.4s-.1.5.9-1.7c.1-.1.1-.1.1-.2a.2.2,0,0,0,.2-.2,6,6,0,0,1,3.6-1.2,2.3,2.3,0,0,1,1.1.4c.5.7.2,3.3.2,3.3s-2.8.7-3.5.8-1.7,4.4-3.1,4S70,22.9,70,22.6s.2-3.2.3-3.9v-.2h0c0-.6,0-.8-.3-.2s-1.2,3.7-2.3,7.2c-.2.4-2.3,6.9-2.6,7.7a9.6,9.6,0,0,1-.8,1.9c-.3.4-.7.7-1.2.5a6.5,6.5,0,0,1-3.2-2.8c0-2.7.2-17.2-.5-16s-5.8,9.8-5.8,9.8h-.2c-.4-.1-1-.2-1.1-.6h-.1a1.7,1.7,0,0,1-.1-.7,28.6,28.6,0,0,1-1-3.1c-.6-1.9-1.2-4-1.3-4.2s-.5-.2-.8,0-3.6,5.4-5.8,5.6" fill="#ffa200"/></svg>