<svg xmlns="http://www.w3.org/2000/svg" xmlns:xlink="http://www.w3.org/1999/xlink" viewBox="0 0 369.9 84.3"><defs><linearGradient id="a" x1="-907.68" y1="-132.78" x2="-906.68" y2="-132.78" gradientTransform="matrix(0, -84.25, -84.25, 0, -11147.31, -76392.38)" gradientUnits="userSpaceOnUse"><stop offset="0" stop-color="#f15a24"/><stop offset="1" stop-color="#dfbe3b"/></linearGradient></defs><title>goto2</title><path d="M243.7,60.4v-24c0-.9.1-2.2.2-3.9a11.2,11.2,0,0,0-.5,1.3L231.3,60.4h-1.8L217.4,34l-.5-1.2V60.4h-3.7v-35h4.3l11.8,26c.2.5.5,1.1.7,1.7a5.6,5.6,0,0,1,.4,1.2l.4-1.1c.2-.5.4-1.1.7-1.7l11.8-26h4.1v35h-3.7Z"/><path d="M261.8,60.4a11.4,11.4,0,0,1-4.6-.9,9.2,9.2,0,0,1-3.5-2.6,10.8,10.8,0,0,1-2.2-4.1,18.9,18.9,0,0,1-.8-5.6,14.6,14.6,0,0,1,.9-5.2,14.4,14.4,0,0,1,2.4-4.2,10.9,10.9,0,0,1,3.6-2.8,10,10,0,0,1,4.6-1,9.7,9.7,0,0,1,7.5,3.3,10.4,10.4,0,0,1,1.9,3.8,19.5,19.5,0,0,1,.7,5v1.8H254.6a11,11,0,0,0,.6,3.7,8.1,8.1,0,0,0,1.6,2.9,6.4,6.4,0,0,0,2.5,1.8,9,9,0,0,0,3.4.6,12.8,12.8,0,0,0,7.7-2.8l.5-.4v3.8h-.1A15.2,15.2,0,0,1,261.8,60.4Zm6.5-15.6a9.1,9.1,0,0,0-1.7-5.4,5.7,5.7,0,0,0-4.6-2,8.7,8.7,0,0,0-2.8.5,8.6,8.6,0,0,0-2.2,1.5,8.9,8.9,0,0,0-1.6,2.5,9.6,9.6,0,0,0-.8,2.9Z"/><path d="M285.9,60.4a11.4,11.4,0,0,1-4.6-.9,9.2,9.2,0,0,1-3.5-2.6,10.8,10.8,0,0,1-2.2-4.1,18.9,18.9,0,0,1-.8-5.6,14.6,14.6,0,0,1,.9-5.2,14.4,14.4,0,0,1,2.4-4.2,10.9,10.9,0,0,1,3.6-2.8,10,10,0,0,1,4.6-1,9.7,9.7,0,0,1,7.5,3.3,10.4,10.4,0,0,1,1.9,3.8,19.5,19.5,0,0,1,.7,5v1.8H278.7a11,11,0,0,0,.6,3.7,8.1,8.1,0,0,0,1.6,2.9,6.4,6.4,0,0,0,2.5,1.8,9,9,0,0,0,3.4.6,12.8,12.8,0,0,0,7.7-2.8l.5-.4v3.8h-.1A15,15,0,0,1,285.9,60.4Zm6.6-15.6a9.1,9.1,0,0,0-1.7-5.4,5.8,5.8,0,0,0-4.6-2,8.7,8.7,0,0,0-2.8.5,8.6,8.6,0,0,0-2.2,1.5,8.9,8.9,0,0,0-1.6,2.5,9.6,9.6,0,0,0-.8,2.9Z"/><path d="M308,60.3c-4.1,0-6.2-2.4-6.2-7.2V37.9h-4.3V34.6h4.3V28.5l3.7-1.2v7.3h6.3v3.3h-6.3V52.6a5.8,5.8,0,0,0,.8,3.4,2.8,2.8,0,0,0,2.5,1,5,5,0,0,0,2.6-.8l.5-.3v3.5h-.2A10.3,10.3,0,0,1,308,60.3Z"/><path d="M315.7,59.8V34.6h3.7V59.8Zm1.8-30.1a2.1,2.1,0,0,1-1.7-.7,2.4,2.4,0,0,1-.7-1.8,2.9,2.9,0,0,1,.7-1.8,2.3,2.3,0,0,1,1.7-.7l1,.2.8.5a2.2,2.2,0,0,1,.5.8,3,3,0,0,1,.2,1,3.6,3.6,0,0,1-.2,1,1.6,1.6,0,0,1-.6.8l-.8.5Z"/><path d="M340.3,59.8V45.4c0-5.4-1.9-8-5.7-8a6.4,6.4,0,0,0-2.8.6,7.6,7.6,0,0,0-2.3,1.7,9.3,9.3,0,0,0-1.5,2.6,8.6,8.6,0,0,0-.5,3.2V59.8h-3.7V34.6h3.7v3.7a9.2,9.2,0,0,1,8-4.2,7.8,7.8,0,0,1,6.4,2.7,12.4,12.4,0,0,1,2.2,7.7V59.8Z"/><path d="M356.9,69.3a17.5,17.5,0,0,1-7.8-1.8h-.2V63.6l.5.3a15.2,15.2,0,0,0,7.5,2.2c6.2,0,9.3-3.1,9.4-9.6a9.9,9.9,0,0,1-8.5,4.3,10,10,0,0,1-4.3-.9,10.3,10.3,0,0,1-3.4-2.5,11.8,11.8,0,0,1-2.2-4,16.9,16.9,0,0,1-.8-5.3,18.9,18.9,0,0,1,.8-5.6,12.3,12.3,0,0,1,2.3-4.4,10.6,10.6,0,0,1,3.7-2.9,10.9,10.9,0,0,1,4.8-1,8.5,8.5,0,0,1,7.5,3.7V34.8h3.7V55.5c0,4.7-1.1,8.2-3.2,10.4S361.3,69.3,356.9,69.3Zm2.2-31.8a7.7,7.7,0,0,0-3.4.7,8.6,8.6,0,0,0-2.6,2,8.8,8.8,0,0,0-1.6,3.2,14.4,14.4,0,0,0-.6,4.3,16.2,16.2,0,0,0,.5,4,10.5,10.5,0,0,0,1.5,3,6,6,0,0,0,2.3,1.9,7.4,7.4,0,0,0,3.1.7,7.9,7.9,0,0,0,3.2-.6,6.4,6.4,0,0,0,2.5-1.8,8.1,8.1,0,0,0,1.6-2.7,8.8,8.8,0,0,0,.6-3.3V44.6a8.7,8.7,0,0,0-.5-2.8,7.6,7.6,0,0,0-1.5-2.3,6.3,6.3,0,0,0-2.3-1.6A11.1,11.1,0,0,0,359.1,37.5Z"/><path d="M134.1,57.6A27.6,27.6,0,0,1,121,60.5c-5.5,0-9.9-1.5-13.1-4.6s-4.8-7.3-4.8-12.7,1.7-9.8,5.2-13.2,8.1-5.1,13.9-5.1a32.8,32.8,0,0,1,10.3,1.5v7.3a22.2,22.2,0,0,0-10.4-2.3,10.6,10.6,0,0,0-7.9,3.1,11.7,11.7,0,0,0-3,8.4c0,3.5.9,6.3,2.7,8.2a9.8,9.8,0,0,0,7.4,2.9,13.7,13.7,0,0,0,5-.8V47.1h-7.5V40.9H134V57.6Z"/><path d="M151.2,60.5c-4.2,0-7.5-1.2-9.9-3.5s-3.6-5.5-3.6-9.5,1.2-7.4,3.7-9.7,5.9-3.5,10.1-3.5,7.5,1.2,9.9,3.5a12.3,12.3,0,0,1,3.6,9.3c0,4.1-1.2,7.4-3.7,9.8S155.5,60.5,151.2,60.5Zm.2-20.3a5.1,5.1,0,0,0-4.3,1.9,8.4,8.4,0,0,0-1.5,5.3c0,4.8,2,7.2,5.9,7.2s5.6-2.5,5.6-7.4S155.2,40.2,151.4,40.2Z"/><path d="M195.2,60.5c-4.2,0-7.5-1.2-9.9-3.5s-3.6-5.5-3.6-9.5,1.2-7.4,3.7-9.7,5.9-3.5,10.1-3.5,7.5,1.2,9.9,3.5a12.3,12.3,0,0,1,3.6,9.3c0,4.1-1.2,7.4-3.7,9.8S199.4,60.5,195.2,60.5Zm.2-20.3a5.1,5.1,0,0,0-4.3,1.9,8.4,8.4,0,0,0-1.5,5.3c0,4.8,2,7.2,5.9,7.2s5.6-2.5,5.6-7.4S199.1,40.2,195.4,40.2Z"/><polygon points="187.4 32.4 177.6 32.4 177.6 59.9 169.2 59.9 169.2 32.4 159.4 32.4 159.4 25.5 187.4 25.5 187.4 32.4"/><path d="M21.4,74.2c-7.9-.7-14.2-4-18.3-10.9s-4-14-.6-21C-4.9,27.9,5,11.1,21.4,10.1,25.9,3.6,32.2,0,40.2,0S54.4,3.6,58.9,10A22,22,0,0,1,77.8,42.1c3.4,7.1,3.5,14.2-.6,21.2S66.8,73.5,59,74.2A22.5,22.5,0,0,1,21.4,74.2Z" fill="url(#a)"/><path d="M26.1,66.2c-7.1,1.2-12.8-.8-16.5-7-2.6-4.3-2.9-11.3,2.3-17-4.7-5.6-5.8-11.6-1.8-18S17.9,17.5,26,18c2.4-6.5,7-10.5,14.1-10.5S51.8,11.3,54.3,18c7.6-1.2,13.7,1.1,17,8.2s1.3,11.1-2.9,15.9c4.8,5.6,5.8,11.7,1.7,18.1-3.1,4.9-8,6.7-15.9,6-2.4,6.6-7,10.5-14.1,10.5S28.5,72.9,26.1,66.2Zm14.1,3.2a6.9,6.9,0,0,0,6.7-4.7A6.8,6.8,0,0,0,44.5,57l-1.4-1.2a4.5,4.5,0,0,1,2.3-7.5c2.9-.7,5.4,1.3,5.8,4.6a7,7,0,0,0,8.4,6.2,6.9,6.9,0,0,0,5.3-8.7A7,7,0,0,0,55.5,46l-1.6.6a4.8,4.8,0,0,1-5.1-1.9,4.2,4.2,0,0,1,0-5,4.8,4.8,0,0,1,5.1-1.9l1.9.7a7,7,0,0,0,8.4-3A6.8,6.8,0,0,0,63,27a7,7,0,0,0-9-.4,6.9,6.9,0,0,0-2.8,5.3,4.8,4.8,0,0,1-4.3,4.3,4.9,4.9,0,0,1-4.7-2.7,4.7,4.7,0,0,1,1.7-5.7l1.1-.9a6.7,6.7,0,0,0,.1-9.8,7.1,7.1,0,0,0-10.2.4,6.8,6.8,0,0,0,1,9.9,10.7,10.7,0,0,1,1.6,1.4,4.7,4.7,0,0,1,.4,5.4,4.6,4.6,0,0,1-5,2c-2.6-.7-3.4-2.6-3.8-5a6.9,6.9,0,1,0-13.5,3A7,7,0,0,0,25,38.5l1.9-.6a4.6,4.6,0,0,1,5.5,3.9,4.4,4.4,0,0,1-3.9,5,10.2,10.2,0,0,1-3.8-.7,7.1,7.1,0,0,0-9.2,4.5,6.8,6.8,0,0,0,5.1,8.7,7,7,0,0,0,8.5-5.6,9,9,0,0,1,.3-1.6,4.7,4.7,0,0,1,4.9-3.7,4.5,4.5,0,0,1,4.2,4.2A4.9,4.9,0,0,1,36,57.2a6.7,6.7,0,0,0-2.6,7.7A7.4,7.4,0,0,0,40.2,69.4Z" fill="#fff"/></svg>