<svg width="135" height="50" viewBox="0 0 135 50" fill="none" xmlns="http://www.w3.org/2000/svg">
<path d="M11.9344 12.0361C11.9344 14.1276 11.4561 15.7982 10.4993 17.0481C9.54251 18.2896 8.25843 18.9103 6.64703 18.9103C5.15313 18.9103 3.95716 18.4229 3.05914 17.448V23.8598H0V5.13692H2.81995L2.94584 6.51176C3.84386 5.42855 5.065 4.88694 6.60926 4.88694C8.27102 4.88694 9.57189 5.50354 10.5119 6.73673C11.4602 7.96159 11.9344 9.66557 11.9344 11.8487V12.0361ZM8.88788 11.7737C8.88788 10.4238 8.61512 9.3531 8.06959 8.56153C7.53246 7.76995 6.76033 7.37416 5.7532 7.37416C4.50269 7.37416 3.60467 7.8866 3.05914 8.91149V14.9108C3.61306 15.9607 4.51948 16.4856 5.77838 16.4856C6.75194 16.4856 7.51148 16.0982 8.057 15.3233C8.61092 14.54 8.88788 13.3568 8.88788 11.7737Z" fill="#EC5D0C"/>
<path d="M22.5954 18.9103C20.6566 18.9103 19.083 18.3063 17.8745 17.0981C16.6743 15.8815 16.0742 14.265 16.0742 12.2486V11.8736C16.0742 10.5238 16.3344 9.31977 16.8547 8.26156C17.3835 7.19501 18.122 6.36594 19.0704 5.77434C20.0188 5.18274 21.0763 4.88694 22.2429 4.88694C24.0977 4.88694 25.5286 5.47438 26.5357 6.64924C27.5513 7.82411 28.059 9.48642 28.059 11.6362V12.861H19.1585C19.2509 13.9776 19.6243 14.8608 20.279 15.5107C20.942 16.1607 21.7729 16.4856 22.7716 16.4856C24.1732 16.4856 25.3146 15.9232 26.1958 14.7983L27.845 16.3606C27.2995 17.1689 26.5693 17.798 25.6545 18.2479C24.7481 18.6895 23.7284 18.9103 22.5954 18.9103ZM22.2303 7.32417C21.391 7.32417 20.7112 7.6158 20.1909 8.19907C19.6789 8.78233 19.3516 9.59474 19.2089 10.6363H25.0376V10.4113C24.9705 9.39476 24.6977 8.62819 24.2194 8.11158C23.741 7.58664 23.0779 7.32417 22.2303 7.32417Z" fill="#EC5D0C"/>
<path d="M35.3461 5.13692L35.4342 6.69924C36.4413 5.49104 37.7632 4.88694 39.3998 4.88694C42.2365 4.88694 43.68 6.49926 43.7304 9.72389V18.6604H40.6712V9.89887C40.6712 9.04064 40.4824 8.40738 40.1047 7.99909C39.7355 7.58247 39.127 7.37416 38.2793 7.37416C37.0456 7.37416 36.1266 7.92827 35.5223 9.03647V18.6604H32.4632V5.13692H35.3461Z" fill="#EC5D0C"/>
<path d="M48.3863 11.7987C48.3863 9.6989 48.8815 8.02409 49.8718 6.77423C50.8706 5.51604 52.1924 4.88694 53.8374 4.88694C55.3901 4.88694 56.6112 5.42438 57.5008 6.49926L57.6393 5.13692H60.3963V18.2479C60.3963 20.0227 59.8382 21.4226 58.722 22.4474C57.6141 23.4723 56.116 23.9848 54.2277 23.9848C53.2289 23.9848 52.2512 23.7765 51.2944 23.3598C50.346 22.9516 49.6243 22.4141 49.1291 21.7475L50.5768 19.9227C51.5168 21.0309 52.675 21.585 54.0514 21.585C55.0669 21.585 55.8684 21.3101 56.4559 20.7601C57.0434 20.2185 57.3372 19.4186 57.3372 18.3604V17.448C56.4559 18.4229 55.2809 18.9103 53.8122 18.9103C52.2176 18.9103 50.9125 18.2813 49.897 17.0231C48.8899 15.7649 48.3863 14.0234 48.3863 11.7987ZM51.4329 12.0611C51.4329 13.4193 51.7098 14.49 52.2638 15.2733C52.8261 16.0482 53.6024 16.4356 54.5927 16.4356C55.8265 16.4356 56.7413 15.9107 57.3372 14.8608V8.91149C56.7581 7.8866 55.8517 7.37416 54.6179 7.37416C53.6108 7.37416 52.8261 7.76995 52.2638 8.56153C51.7098 9.3531 51.4329 10.5196 51.4329 12.0611Z" fill="#EC5D0C"/>
<path d="M73.8646 17.3355C72.9666 18.3854 71.6909 18.9103 70.0375 18.9103C68.5604 18.9103 67.44 18.4812 66.6762 17.623C65.9209 16.7648 65.5432 15.5232 65.5432 13.8984V5.13692H68.6024V13.8609C68.6024 15.5774 69.3199 16.4356 70.7551 16.4356C72.2406 16.4356 73.2435 15.9065 73.7639 14.8483V5.13692H76.823V18.6604H73.9401L73.8646 17.3355Z" fill="#EC5D0C"/>
<path d="M85.2557 18.6604H82.1965V5.13692H85.2557V18.6604ZM82.0077 1.62482C82.0077 1.1582 82.1546 0.770746 82.4483 0.462447C82.7505 0.154149 83.1785 0 83.7324 0C84.2863 0 84.7144 0.154149 85.0165 0.462447C85.3186 0.770746 85.4697 1.1582 85.4697 1.62482C85.4697 2.0831 85.3186 2.46639 85.0165 2.77468C84.7144 3.07465 84.2863 3.22463 83.7324 3.22463C83.1785 3.22463 82.7505 3.07465 82.4483 2.77468C82.1546 2.46639 82.0077 2.0831 82.0077 1.62482Z" fill="#EC5D0C"/>
<path d="M93.4995 5.13692L93.5876 6.69924C94.5948 5.49104 95.9166 4.88694 97.5532 4.88694C100.39 4.88694 101.833 6.49926 101.884 9.72389V18.6604H98.8247V9.89887C98.8247 9.04064 98.6358 8.40738 98.2582 7.99909C97.8889 7.58247 97.2804 7.37416 96.4328 7.37416C95.199 7.37416 94.28 7.92827 93.6758 9.03647V18.6604H90.6166V5.13692H93.4995Z" fill="#EC5D0C"/>
<path d="M113.074 18.9103C111.135 18.9103 109.561 18.3063 108.353 17.0981C107.152 15.8815 106.552 14.265 106.552 12.2486V11.8736C106.552 10.5238 106.813 9.31977 107.333 8.26156C107.862 7.19501 108.6 6.36594 109.549 5.77434C110.497 5.18274 111.554 4.88694 112.721 4.88694C114.576 4.88694 116.007 5.47438 117.014 6.64924C118.029 7.82411 118.537 9.48642 118.537 11.6362V12.861H109.637C109.729 13.9776 110.102 14.8608 110.757 15.5107C111.42 16.1607 112.251 16.4856 113.25 16.4856C114.651 16.4856 115.793 15.9232 116.674 14.7983L118.323 16.3606C117.778 17.1689 117.047 17.798 116.133 18.2479C115.226 18.6895 114.207 18.9103 113.074 18.9103ZM112.708 7.32417C111.869 7.32417 111.189 7.6158 110.669 8.19907C110.157 8.78233 109.83 9.59474 109.687 10.6363H115.516V10.4113C115.449 9.39476 115.176 8.62819 114.697 8.11158C114.219 7.58664 113.556 7.32417 112.708 7.32417Z" fill="#EC5D0C"/>
<path d="M130.621 14.9858C130.621 14.4442 130.394 14.0317 129.941 13.7484C129.496 13.4651 128.753 13.2152 127.713 12.9985C126.672 12.7819 125.803 12.5069 125.107 12.1736C123.579 11.4404 122.815 10.378 122.815 8.98648C122.815 7.81994 123.311 6.84505 124.301 6.06181C125.291 5.27857 126.55 4.88694 128.078 4.88694C129.706 4.88694 131.019 5.2869 132.018 6.08681C133.025 6.88672 133.529 7.9241 133.529 9.19895H130.47C130.47 8.61569 130.251 8.13241 129.815 7.74912C129.379 7.3575 128.799 7.16169 128.078 7.16169C127.406 7.16169 126.857 7.31583 126.428 7.62413C126.009 7.93243 125.799 8.34488 125.799 8.86149C125.799 9.32811 125.996 9.69056 126.391 9.94887C126.785 10.2072 127.582 10.4696 128.783 10.7363C129.983 10.9946 130.923 11.307 131.603 11.6737C132.291 12.032 132.799 12.4652 133.126 12.9735C133.462 13.4818 133.629 14.0984 133.629 14.8233C133.629 16.0398 133.122 17.0272 132.106 17.7855C131.091 18.5354 129.76 18.9103 128.115 18.9103C126.999 18.9103 126.005 18.7104 125.132 18.3104C124.259 17.9105 123.579 17.3605 123.092 16.6606C122.606 15.9607 122.362 15.2066 122.362 14.3984H125.333C125.375 15.1149 125.648 15.6691 126.152 16.0607C126.655 16.444 127.322 16.6356 128.153 16.6356C128.959 16.6356 129.572 16.4856 129.991 16.1857C130.411 15.8774 130.621 15.4774 130.621 14.9858Z" fill="#EC5D0C"/>
<path d="M6.08439 42.0118L7.59136 41.3591V42.105C7.59136 43.0747 7.24601 43.9014 6.55532 44.5851C5.86462 45.2688 5.02951 45.6107 4.04998 45.6107C3.07045 45.6107 2.2322 45.2688 1.53523 44.5851C0.838252 43.9014 0.489765 43.0747 0.489765 42.105V35.821L1.99673 35.1683V42.0771C2.00929 42.6551 2.21022 43.1337 2.59952 43.5129C3.00138 43.9045 3.5037 44.1003 4.10649 44.1003C4.63393 44.1003 5.09544 43.8889 5.49102 43.4663C5.8866 43.0436 6.08439 42.5588 6.08439 42.0118ZM0.357905 33.6299C0.119302 33.3875 0 33.0954 0 32.7535C0 32.4117 0.119302 32.1226 0.357905 31.8864C0.596509 31.644 0.885345 31.5228 1.22441 31.5228C1.56348 31.5228 1.85232 31.644 2.09092 31.8864C2.32952 32.1226 2.44883 32.4117 2.44883 32.7535C2.44883 33.0954 2.32952 33.3875 2.09092 33.6299C1.85232 33.8661 1.56348 33.9842 1.22441 33.9842C0.885345 33.9842 0.596509 33.8661 0.357905 33.6299Z" fill="#EC5D0C"/>
<path d="M27.4973 42.8696C27.4973 43.0747 27.5789 43.286 27.7422 43.5036C28.0436 43.9014 28.5239 44.1003 29.1832 44.1003C29.5851 44.1003 29.9398 44.007 30.2475 43.8206L30.8126 45.2284C30.3229 45.4833 29.7797 45.6107 29.1832 45.6107C28.2414 45.6107 27.4063 45.2688 26.6779 44.5851C26.1881 44.0878 25.9432 43.516 25.9432 42.8696C25.9432 42.8447 25.9432 42.8198 25.9432 42.795C25.9432 41.6326 26.5429 40.8091 27.7422 40.3242L31.5755 38.7672C31.5755 38.1767 31.3777 37.6826 30.9822 37.2848C30.5866 36.8807 30.0874 36.6787 29.4846 36.6787C28.9572 36.6787 28.4925 36.8745 28.0907 37.2661C27.7014 37.6453 27.5004 38.1239 27.4879 38.7019V38.8325L25.9809 39.4944V38.674C25.9809 37.8038 26.3577 36.9709 27.1111 36.1753C27.7516 35.504 28.5616 35.1683 29.5411 35.1683C30.5207 35.1683 31.3558 35.5102 32.0465 36.1939C32.7372 36.8776 33.0825 37.7043 33.0825 38.674V44.958L31.5755 45.6107V40.3988L28.4768 41.6482C27.8238 41.9527 27.4973 42.3599 27.4973 42.8696Z" fill="#EC5D0C"/>
<path d="M57.0667 45.8065V44.9767C56.4702 45.3993 55.7858 45.6107 55.0134 45.6107C54.0339 45.6107 53.1988 45.2688 52.5081 44.5851C51.8174 43.9014 51.4721 43.0747 51.4721 42.105V38.674C51.4721 37.7043 51.8174 36.8776 52.5081 36.1939C53.1988 35.5102 54.0339 35.1683 55.0134 35.1683C55.993 35.1683 56.8312 35.5102 57.5282 36.1939C58.2252 36.8776 58.5737 37.7043 58.5737 38.674V45.8344C58.5737 46.8041 58.2252 47.6308 57.5282 48.3145C56.8312 48.9982 55.993 49.3401 55.0134 49.3401C54.0339 49.3401 53.1988 48.9982 52.5081 48.3145C52.0686 47.8794 51.7703 47.3884 51.6133 46.8414L53.1109 46.5244C53.2114 46.7917 53.3778 47.031 53.6101 47.2423C54.0433 47.6339 54.53 47.8297 55.07 47.8297C55.5974 47.8297 56.062 47.6339 56.4639 47.2423C56.8532 46.8631 57.0541 46.3845 57.0667 45.8065ZM52.979 42.0771C52.979 42.6489 53.1894 43.1275 53.6101 43.5129C54.037 43.9045 54.5237 44.1003 55.07 44.1003C55.5974 44.1003 56.062 43.9045 56.4639 43.5129C56.8532 43.1337 57.0541 42.6551 57.0667 42.0771V38.7019C57.0541 38.1239 56.8532 37.6453 56.4639 37.2661C56.062 36.8745 55.5597 36.6787 54.9569 36.6787C54.4295 36.6787 53.968 36.8745 53.5724 37.2661C53.1831 37.6515 52.9853 38.1115 52.979 38.646V38.7019V42.0771Z" fill="#EC5D0C"/>
<path d="M80.5611 44.1003C81.0885 44.1003 81.5532 43.9045 81.955 43.5129C82.3443 43.1337 82.5453 42.6551 82.5578 42.0771V41.9465L84.0648 41.2846V42.105C84.0648 42.9752 83.6881 43.8081 82.9346 44.6037C82.2941 45.275 81.4841 45.6107 80.5046 45.6107C79.5251 45.6107 78.6899 45.2688 77.9993 44.5851C77.3086 43.9014 76.9632 43.0747 76.9632 42.105V38.674C76.9632 37.7043 77.3086 36.8776 77.9993 36.1939C78.6899 35.5102 79.5251 35.1683 80.5046 35.1683C81.4464 35.1683 82.2847 35.5102 83.0193 36.1939C83.7163 36.8403 84.0648 37.667 84.0648 38.674V39.5504L78.4702 42.0118C78.4702 42.6023 78.668 43.0995 79.0635 43.5036C79.4591 43.9014 79.9583 44.1003 80.5611 44.1003ZM80.4481 36.6787C79.9206 36.6787 79.4591 36.8745 79.0635 37.2661C78.668 37.6577 78.4702 38.127 78.4702 38.674C78.4702 38.6864 78.4702 38.6957 78.4702 38.7019V40.3802L82.5484 38.5807C82.517 38.0586 82.3192 37.6204 81.955 37.2661C81.5532 36.8745 81.0509 36.6787 80.4481 36.6787Z" fill="#EC5D0C"/>
<path d="M101.626 45.6107V37.7043C101.626 37.0082 101.877 36.4115 102.379 35.9142C102.881 35.417 103.487 35.1683 104.197 35.1683C104.931 35.1683 105.537 35.4107 106.015 35.8956C106.517 35.4107 107.12 35.1683 107.823 35.1683C108.576 35.1683 109.189 35.4107 109.66 35.8956C110.137 36.3866 110.379 36.9926 110.385 37.7136V44.958L108.878 45.6107L108.887 37.7509C108.887 37.4402 108.784 37.176 108.576 36.9584C108.369 36.7409 108.124 36.6321 107.842 36.6321C107.547 36.6321 107.295 36.7409 107.088 36.9584C106.875 37.1822 106.768 37.4433 106.768 37.7416V37.7509L106.759 44.958L105.252 45.6107L105.261 37.7509C105.261 37.4402 105.157 37.176 104.95 36.9584C104.743 36.7409 104.498 36.6321 104.216 36.6321C103.927 36.6321 103.676 36.7409 103.462 36.9584C103.249 37.176 103.142 37.4402 103.142 37.7509L103.132 44.958L101.626 45.6107Z" fill="#EC5D0C"/>
<path d="M131.562 44.1003C132.121 44.1003 132.583 43.9138 132.947 43.5409C133.311 43.1555 133.493 42.7266 133.493 42.2542C133.493 41.8378 133.311 41.4431 132.947 41.0701C132.576 40.6972 132.074 40.4952 131.44 40.4641C130.661 40.4268 130.043 40.1937 129.584 39.7648C129.139 39.3484 128.872 38.7517 128.784 37.9747C128.777 37.9188 128.774 37.8628 128.774 37.8069C128.806 37.1294 129.082 36.5265 129.603 35.9981C130.137 35.4449 130.787 35.1683 131.553 35.1683C132.363 35.1683 133.013 35.4449 133.502 35.9981C133.829 36.3711 134.083 36.8652 134.265 37.4806L132.9 38.0773C132.799 37.667 132.645 37.3407 132.438 37.0983C132.206 36.8435 131.908 36.716 131.543 36.716C131.198 36.716 130.897 36.8435 130.639 37.0983C130.401 37.3345 130.281 37.6018 130.281 37.9001C130.281 37.9126 130.281 37.9281 130.281 37.9467C130.281 38.2451 130.394 38.503 130.62 38.7206C130.828 38.9257 131.129 39.05 131.525 39.0935C132.617 39.2178 133.455 39.5504 134.039 40.0911C134.68 40.7003 135 41.4431 135 42.3195V42.3474C134.987 43.1803 134.677 43.9262 134.068 44.5851C133.427 45.2688 132.592 45.6107 131.562 45.6107C130.576 45.6107 129.766 45.275 129.132 44.6037C128.423 43.8641 128.046 43.0312 128.002 42.105L127.993 42.0118L129.5 41.3591L129.509 42.0771C129.515 42.6551 129.713 43.1337 130.102 43.5129C130.504 43.9045 130.991 44.1003 131.562 44.1003Z" fill="#EC5D0C"/>
</svg>
