<?xml version="1.0" encoding="utf-8"?>
<!-- Generator: Adobe Illustrator 19.2.1, SVG Export Plug-In . SVG Version: 6.00 Build 0)  -->
<svg version="1.1" id="layer" xmlns="http://www.w3.org/2000/svg" xmlns:xlink="http://www.w3.org/1999/xlink" x="0px" y="0px"
	 viewBox="0 0 652 652" style="enable-background:new 0 0 652 652;" xml:space="preserve">
<style type="text/css">
	.st0{fill:#FF0000;}
</style>
<path class="st0" d="M606,262.2h-0.4c-0.4,0-0.9,0.4-0.9,0.9c-0.4,6.2-4.9,23.9-36.3,48.3c-62.5,49.2-172.7,108.1-202,123.6
	c-1.3,0.4-2.2,0.4-3.1,0c-0.9-0.9,0-2.2,0-2.7l31-42.1c0,0,12.8-14.6,7.1-20.8c-3.5-3.5-21.3-0.4-21.3-0.4s-145.7,20.4-257.8-3.5
	c0,0-0.4,0-0.4,0.4v0.4c24.4,7.1,112.5,29.7,239.2,23c0.9,0,1.8,0.9,1.8,2.2c0,0.4,0,0.9-0.4,1.3c-6.6,8.4-24.4,30.6-53.2,60.7
	c-7.1,8-11.5,12.4-5.8,17.7c5.3,4.4,14.6,0,14.6,0l79.7-38.1c0,0,116.5-56.7,166.5-93C629,295.5,611.8,268.4,606,262.2 M216.2,247.6
	c-4,0-7.1-1.3-9.3-4c-2.2-2.7-2.7-6.2-1.8-10.6c2.2-7.5,9.7-13.7,17.7-13.7c4,0,7.1,1.3,9.3,4c2.2,2.7,2.7,6.2,1.8,10.2
	C231.7,241.9,224.2,247.6,216.2,247.6L216.2,247.6z M340.7,354.8c-4.4,0-8.4-0.4-12-1.3c-7.5-2.2-12.8-7.1-15.5-14.2
	c-4.9-12.8,0-30.6,6.6-41.6c0-0.4,19-36.3,64.7-43h3.5c7.5,0,12.8,2.2,16.4,6.2c4.9,6.2,2.7,14.2,2.7,14.6
	c-0.4,0.9-6.6,27.9-55.8,38.1c-5.3,0.9-8.9,0.9-11.1,0.9H338c-0.9,2.2-3.1,8.9-0.9,14.6c1.3,3.1,4,5.8,8,7.5
	c2.7,0.9,6.2,1.3,9.3,1.3c19.5,0,39-17.7,39-18.2c0,0,1.3-0.9,4.4-4h0.4c0.4,0,0.9-0.4,1.3-0.4c0.9,0,1.8,0.4,2.2,0.9
	c0.4,0.4,0.9,1.8,0.9,2.7c0,0.4,0,0.9-0.4,1.8c-0.9,2.2-4.9,10.6-22.1,22.6c-8,4.9-15.9,8.4-24.4,10.2
	C350,354.4,345.1,354.8,340.7,354.8L340.7,354.8z M376.1,271.5h-2.2c-5.8,0.4-11.5,2.7-17.3,7.1c-10.6,8-15.9,19.5-15.9,19.5
	c-0.4,0.4-0.4,1.3,0,2.2c0.4,0.9,1.8,1.3,3.5,1.3h1.3c4.9,0,12.4-0.4,23-5.8c5.8-3.1,9.7-6.6,12-11.1c1.8-3.5,2.2-6.6,2.2-6.6
	s0.4-2.7-1.3-4.9C381,272.4,378.8,271.5,376.1,271.5L376.1,271.5z M419.5,348.6c-4.9-0.4-8.4-4.4-8.4-8.9c0-1.3,0.4-2.7,0.9-4
	c0.9-1.3,5.8-10.2,58.5-106.7c0.4-0.4,0.4-0.9,0.9-1.3l0.4-0.4c3.1-4.4,8-7.1,13.3-7.5h2.2c4.9,0.4,8.4,4.4,8.4,8.9
	c0,1.3-0.4,2.7-0.9,4c-0.9,1.3-5.8,10.2-58.5,106.7c-0.4,0.4-0.4,0.9-0.9,1.3l-0.4,0.4c-3.1,4.4-8,7.1-13.3,7.5L419.5,348.6
	L419.5,348.6z M250.3,354.8c-8.4,0-16.4-4.4-20.8-12l-1.3-2.7c-2.2-6.6-0.9-13.7,0-16.8c0.4-2.7,0.9-3.1,11.5-22.6
	c3.1-5.8,6.2-11.5,11.5-21.7h-18.6c-0.4,0-0.9,0-1.3-0.4c-0.4-0.4-0.9-0.4-1.3-0.9c0-0.4-0.4-0.4-0.4-0.9c-0.4-0.9-0.4-2.7,0-3.5
	l2.7-4.9c0.9-1.8,2.2-3.5,4-5.3c2.7-2.7,5.8-4,9.3-4.4h16.8l13.3-24.4c0.4-0.4,0.4-0.9,0.9-1.3l0.4-0.4c3.1-4.4,8-7.1,13.3-7.5h2.2
	c4.9,0.4,8.4,4.4,8.4,8.9c0,1.3-0.4,2.7-0.9,4c-0.4,0.9-12,21.3-12,21.3h23.9c0.9,0,1.8,0.4,2.7,0.9c0.4,0.4,0.4,0.4,0.4,0.9
	c0.4,0.9,0.9,2.7,0,3.5c0,0-4,7.1-4.4,7.5c-2.7,4-6.6,6.2-11.1,6.6h-22.1l-23,42.1c0,0-4.9,8.4-3.1,13.3c0.4,1.3,1.3,2.2,3.1,3.1
	c1.8,0.4,3.5,0.9,5.8,0.9c7.5,0,16.8-4.4,26.6-12l0.4-0.4c1.3-0.9,2.7-1.8,3.5-2.2h0.4c0.4,0,0.9-0.4,1.3-0.4c1.8,0,3.1,1.3,3.1,3.1
	c0,0.4,0,0.9-0.4,1.3l-1.8,3.1c-4,7.1-9.7,12.8-16.8,17.3c-6.2,4-13.7,5.8-21.3,6.2h-4.9L250.3,354.8z M160,348.6
	c-4.9-0.4-8.4-4.4-8.4-8.9c0-1.3,0.4-2.7,0.9-4c0.4-0.9,37.2-68.2,37.2-68.2c0.4-0.4,0.4-0.9,0.9-1.3l0.4-0.4
	c3.1-4.4,8-7.1,13.3-7.5h2.2c4.9,0.4,8.4,4.4,8.4,8.9c0,1.3-0.4,2.7-0.9,4c-0.4,0.9-37.2,68.2-37.2,68.2c-0.4,0.4-0.4,0.9-0.9,1.3
	l-0.4,0.4c-3.1,4.4-8,7.1-13.3,7.5L160,348.6L160,348.6z M489.1,197.1C489.5,197.1,489.5,197.1,489.1,197.1c0.4-0.4,0-0.4,0-0.4
	c-44.7-11.5-85.9-16.4-127.6-19c-148.4-8.9-273.3,22.6-322,60.7C5.8,264,12,289.3,14.7,296.3l0.4,0.4c0.4,0,0.4,0,0.4-0.4
	c1.3-8,12-40.3,86.4-67.3c34.1-11.1,98.8-35,219.2-40.7C405.4,186.5,468.7,195.4,489.1,197.1L489.1,197.1z"/>
</svg>
