<svg xmlns="http://www.w3.org/2000/svg" viewBox="0 0 104 104">
  <rect width="104" height="104" rx="14" fill="#fff6d5"/>
  <rect x="14.87" y="15" width="74" height="74" rx="14" fill="#ffc90c"/>
  <path d="M60.3,46.32H57V44.11a2.21,2.21,0,0,0-2.2-2.21H48.2A2.2,2.2,0,0,0,46,44.11v2.21H42.7a2.2,2.2,0,0,0-2.2,2.21v3.32h22V48.53A2.21,2.21,0,0,0,60.3,46.32Zm-5.5,0H48.2V44.11h6.6Z" fill="#fff"/>
  <path d="M53.7,55.16H49.3V53H40.5v7.74a2.21,2.21,0,0,0,2.2,2.21H60.3a2.21,2.21,0,0,0,2.2-2.21V53H53.7Z" fill="#fff"/>
</svg>
