<svg xmlns="http://www.w3.org/2000/svg" viewBox="0 0 104 104">
  <rect x="0.06" y="0.19" width="104" height="104" rx="14" fill="#dbeeff"/>
  <rect x="15.06" y="15.19" width="74" height="74" rx="14" fill="#0085ff"/>
  <path d="M60.06,46.19c0-2.17-3.66-4-8-4s-8,1.83-8,4v2c0,2.17,3.67,4,8,4s8-1.83,8-4Z" fill="#fff"/>
  <path d="M52.06,59.19c-4.33,0-8-1.83-8-4v3c0,2.17,3.67,4,8,4s8-1.83,8-4v-3C60.06,57.36,56.4,59.19,52.06,59.19Z" fill="#fff"/>
  <path d="M60.06,50.19c0,2.17-3.66,4-8,4s-8-1.83-8-4v3c0,2.17,3.67,4,8,4s8-1.83,8-4Z" fill="#fff"/>
</svg>
