<svg xmlns="http://www.w3.org/2000/svg" viewBox="0 0 135 49.3"><title>penguines</title><path d="M11.9,12a7.6,7.6,0,0,1-1.4,5,4.5,4.5,0,0,1-3.9,1.9,4.5,4.5,0,0,1-3.5-1.5v6.5H0V5.1H2.8V6.5A4.6,4.6,0,0,1,6.6,4.9a4.6,4.6,0,0,1,3.9,1.8,8.1,8.1,0,0,1,1.4,5.1Zm-3-.2a5.8,5.8,0,0,0-.8-3.2A2.7,2.7,0,0,0,5.8,7.4,2.7,2.7,0,0,0,3.1,8.9v6a2.7,2.7,0,0,0,2.7,1.6,2.7,2.7,0,0,0,2.3-1.2A6.5,6.5,0,0,0,8.9,11.8Z" fill="#ec5d0c"/><path d="M22.6,18.9a6.4,6.4,0,0,1-4.7-1.8,6.6,6.6,0,0,1-1.8-4.9v-.3a6.8,6.8,0,0,1,.8-3.6,5.4,5.4,0,0,1,2.2-2.5,5.6,5.6,0,0,1,3.1-.9,5.5,5.5,0,0,1,4.3,1.7,7.2,7.2,0,0,1,1.6,5v1.3H19.2a3.7,3.7,0,0,0,1.1,2.6,3.2,3.2,0,0,0,2.5,1,4.2,4.2,0,0,0,3.4-1.7l1.6,1.6a4.6,4.6,0,0,1-2.1,1.8A6.7,6.7,0,0,1,22.6,18.9ZM22.2,7.3a2.5,2.5,0,0,0-2,.9,5.3,5.3,0,0,0-1,2.4H25v-.2a3.2,3.2,0,0,0-.8-2.3A2.6,2.6,0,0,0,22.2,7.3Z" fill="#ec5d0c"/><path d="M35.3,5.1V6.7a5,5,0,0,1,4-1.8c2.8,0,4.3,1.6,4.3,4.8v9h-3V9.9A2.5,2.5,0,0,0,40.1,8a2.4,2.4,0,0,0-1.8-.6A2.9,2.9,0,0,0,35.5,9v9.7h-3V5.1Z" fill="#ec5d0c"/><path d="M48.4,11.8a7.6,7.6,0,0,1,1.5-5,4.7,4.7,0,0,1,3.9-1.9,4.4,4.4,0,0,1,3.7,1.6V5.1h2.8V18.2a5.4,5.4,0,0,1-1.7,4.2A6.1,6.1,0,0,1,54.2,24a7.5,7.5,0,0,1-2.9-.6,4.8,4.8,0,0,1-2.2-1.7l1.5-1.8a4.4,4.4,0,0,0,3.5,1.7,3.6,3.6,0,0,0,2.4-.8,3.6,3.6,0,0,0,.8-2.4v-1a4.3,4.3,0,0,1-3.5,1.5A4.7,4.7,0,0,1,49.9,17,8.1,8.1,0,0,1,48.4,11.8Zm3,.3a5.3,5.3,0,0,0,.9,3.2,2.7,2.7,0,0,0,2.3,1.1,2.9,2.9,0,0,0,2.7-1.5v-6a2.7,2.7,0,0,0-2.7-1.5,2.6,2.6,0,0,0-2.3,1.2A5.6,5.6,0,0,0,51.4,12.1Z" fill="#ec5d0c"/><path d="M73.9,17.3A4.7,4.7,0,0,1,70,18.9a4,4,0,0,1-3.3-1.3,5.1,5.1,0,0,1-1.2-3.7V5.1h3.1v8.8c0,1.7.7,2.5,2.2,2.5a3.1,3.1,0,0,0,3-1.6V5.1h3V18.7H73.9Z" fill="#ec5d0c"/><path d="M85.3,18.7H82.2V5.1h3.1ZM82,1.6A2.1,2.1,0,0,1,82.4.5,2.1,2.1,0,0,1,83.7,0,1.7,1.7,0,0,1,85,.5a1.6,1.6,0,0,1,.5,1.1A1.7,1.7,0,0,1,85,2.8a1.7,1.7,0,0,1-1.3.4,2,2,0,0,1-1.3-.4A2.1,2.1,0,0,1,82,1.6Z" fill="#ec5d0c"/><path d="M93.5,5.1V6.7a4.9,4.9,0,0,1,4-1.8c2.8,0,4.2,1.6,4.3,4.8v9H98.8V9.9A3.1,3.1,0,0,0,98.3,8a2.5,2.5,0,0,0-1.9-.6A2.9,2.9,0,0,0,93.7,9v9.7H90.6V5.1Z" fill="#ec5d0c"/><path d="M113.1,18.9a6.3,6.3,0,0,1-4.7-1.8,6.6,6.6,0,0,1-1.8-4.9v-.3a8,8,0,0,1,.7-3.6,6.7,6.7,0,0,1,2.2-2.5,6.2,6.2,0,0,1,3.2-.9A5.5,5.5,0,0,1,117,6.6a7.6,7.6,0,0,1,1.5,5v1.3h-8.9a3.8,3.8,0,0,0,1.2,2.6,3.2,3.2,0,0,0,2.5,1,4.2,4.2,0,0,0,3.4-1.7l1.6,1.6a4.9,4.9,0,0,1-2.2,1.8A6,6,0,0,1,113.1,18.9Zm-.4-11.6a2.5,2.5,0,0,0-2,.9,4.4,4.4,0,0,0-1,2.4h5.8v-.2a3.7,3.7,0,0,0-.8-2.3A2.6,2.6,0,0,0,112.7,7.3Z" fill="#ec5d0c"/><path d="M130.6,15a1.4,1.4,0,0,0-.7-1.3,8,8,0,0,0-2.2-.7,13.4,13.4,0,0,1-2.6-.8c-1.5-.8-2.3-1.8-2.3-3.2a3.4,3.4,0,0,1,1.5-2.9,6,6,0,0,1,3.8-1.2A6.1,6.1,0,0,1,132,6.1a3.7,3.7,0,0,1,1.5,3.1h-3a1.8,1.8,0,0,0-.7-1.5,2.9,2.9,0,0,0-1.7-.5,3.1,3.1,0,0,0-1.7.4,1.5,1.5,0,0,0-.6,1.3,1.1,1.1,0,0,0,.6,1,5.9,5.9,0,0,0,2.4.8,11.1,11.1,0,0,1,2.8,1,3.2,3.2,0,0,1,1.5,1.3,2.7,2.7,0,0,1,.5,1.8,3.7,3.7,0,0,1-1.5,3,6.8,6.8,0,0,1-4,1.1,7.3,7.3,0,0,1-3-.6,5.3,5.3,0,0,1-2-1.6,3.9,3.9,0,0,1-.7-2.3h2.9a2.2,2.2,0,0,0,.9,1.7,3.7,3.7,0,0,0,2,.5,3,3,0,0,0,1.8-.4A1.4,1.4,0,0,0,130.6,15Z" fill="#ec5d0c"/><path d="M6.1,42l1.5-.6v.7a3.7,3.7,0,0,1-1,2.5,3.5,3.5,0,0,1-2.6,1,3.5,3.5,0,0,1-2.5-1,3.3,3.3,0,0,1-1-2.5V35.8L2,35.2v6.9a1.8,1.8,0,0,0,.6,1.4,2,2,0,0,0,1.5.6,2,2,0,0,0,1.4-.6A2.2,2.2,0,0,0,6.1,42ZM.4,33.6a.9.9,0,0,1-.4-.8,1,1,0,0,1,.4-.9.9.9,0,0,1,.8-.4,1,1,0,0,1,.9.4,1.2,1.2,0,0,1,.3.9,1.1,1.1,0,0,1-.3.8,1,1,0,0,1-.9.4A.9.9,0,0,1,.4,33.6Z" fill="#ec5d0c"/><path d="M27.5,42.9a1.4,1.4,0,0,0,.2.6,1.8,1.8,0,0,0,1.5.6,1.7,1.7,0,0,0,1-.3l.6,1.4a2.9,2.9,0,0,1-1.6.4,3.3,3.3,0,0,1-2.5-1,2.5,2.5,0,0,1-.8-1.7h0a2.5,2.5,0,0,1,1.8-2.5l3.9-1.5a2.1,2.1,0,0,0-2.1-2.1,2,2,0,0,0-1.4.6,1.7,1.7,0,0,0-.6,1.4h0l-1.5.7v-.8a3.8,3.8,0,0,1,1.1-2.5,3.3,3.3,0,0,1,2.4-1,3.2,3.2,0,0,1,2.5,1,3.4,3.4,0,0,1,1.1,2.5V45l-1.5.6V40.4l-3.1,1.2C27.8,42,27.5,42.4,27.5,42.9Z" fill="#ec5d0c"/><path d="M57.1,45.8V45a3.7,3.7,0,0,1-2.1.6,3.4,3.4,0,0,1-3.5-3.5V38.7a3.5,3.5,0,0,1,6-2.5,3.4,3.4,0,0,1,1.1,2.5v7.1a3.4,3.4,0,0,1-1.1,2.5,3.6,3.6,0,0,1-5,0,3.8,3.8,0,0,1-.9-1.5l1.5-.3a1.8,1.8,0,0,0,.5.7,2,2,0,0,0,1.5.6,2,2,0,0,0,1.4-.6A1.7,1.7,0,0,0,57.1,45.8ZM53,42.1a2,2,0,0,0,.6,1.4,2,2,0,0,0,1.5.6,2,2,0,0,0,1.4-.6,1.8,1.8,0,0,0,.6-1.4V38.7a1.7,1.7,0,0,0-.6-1.4,2,2,0,0,0-1.5-.6,1.8,1.8,0,0,0-1.4.6,1.8,1.8,0,0,0-.6,1.3h0Z" fill="#ec5d0c"/><path d="M80.6,44.1a2,2,0,0,0,1.4-.6,3,3,0,0,0,.6-1.4v-.2l1.5-.6v.8a3.5,3.5,0,0,1-1.2,2.5,3,3,0,0,1-2.4,1A3.4,3.4,0,0,1,77,42.1V38.7a3.4,3.4,0,0,1,3.5-3.5,3.5,3.5,0,0,1,2.5,1,3.3,3.3,0,0,1,1.1,2.5v.9L78.5,42a2.1,2.1,0,0,0,2.1,2.1Zm-.2-7.4a1.8,1.8,0,0,0-1.3.6,1.8,1.8,0,0,0-.6,1.4h0v1.7l4-1.8a1.9,1.9,0,0,0-.5-1.3A2.1,2.1,0,0,0,80.4,36.7Z" fill="#ec5d0c"/><path d="M101.6,45.6V37.7a2.5,2.5,0,0,1,.8-1.8,2.7,2.7,0,0,1,3.6,0,2.4,2.4,0,0,1,1.8-.7,2.5,2.5,0,0,1,1.9.7,2.9,2.9,0,0,1,.7,1.8V45l-1.5.6V37.8a1,1,0,0,0-.3-.8.9.9,0,0,0-.8-.4.8.8,0,0,0-.7.4.9.9,0,0,0-.3.7h0V45l-1.5.6V37.8a.8.8,0,0,0-.4-.8.8.8,0,0,0-1.4,0,.8.8,0,0,0-.4.8V45Z" fill="#ec5d0c"/><path d="M131.6,44.1a1.6,1.6,0,0,0,1.3-.6,1.6,1.6,0,0,0,.6-1.2,1.4,1.4,0,0,0-.6-1.2,1.8,1.8,0,0,0-1.5-.6,3.3,3.3,0,0,1-1.8-.7,2.7,2.7,0,0,1-.8-1.8v-.2a2.5,2.5,0,0,1,.8-1.8,2.4,2.4,0,0,1,2-.8,2.2,2.2,0,0,1,1.9.8,5.3,5.3,0,0,1,.8,1.5l-1.4.6a2.3,2.3,0,0,0-.5-1,1,1,0,0,0-.9-.4,1.2,1.2,0,0,0-.9.4,1.1,1.1,0,0,0-.3.8h0a1.1,1.1,0,0,0,.3.8,1.9,1.9,0,0,0,.9.4,4.1,4.1,0,0,1,2.5,1,2.7,2.7,0,0,1,1,2.2h0a3.5,3.5,0,0,1-5.9,2.3,3.6,3.6,0,0,1-1.1-2.5h0l1.5-.6v.7a1.8,1.8,0,0,0,.6,1.4A2,2,0,0,0,131.6,44.1Z" fill="#ec5d0c"/></svg>