<svg xmlns="http://www.w3.org/2000/svg" viewBox="0 0 411.89 411.36">
  <circle cx="205.88" cy="205.5" r="205.5" fill="#124f48"/>
  <path d="M309.38,20.84Q312,26,314.48,31c24.85,50.42,36.12,84.36,76.2,84.68a82.05,82.05,0,0,0,9-.44" fill="none" stroke="#fff" stroke-width="4"/>
  <path d="M61,59.77c19.84,8.52,41,12.86,62.15,9.52,81.59-12.93,132.54-39.21,163,20.49s39.83,99.57,90.28,94.41a57.1,57.1,0,0,1,34.45,7.52" fill="none" stroke="#ff7715" stroke-width="4"/>
  <path d="M15.59,127.77c26.11,16.14,56.1,26.8,86,22,81.65-13.14,132.67-39.68,163.07,20.35S304.34,270.25,354.83,265c16.67-1.74,31.31,4.1,43.25,13.41" fill="none" stroke="#fff" stroke-width="4"/>
  <path d="M.41,209.27C57.09,197.49,95.06,189.54,119.6,238c30.41,60,39.68,100.13,90.17,94.85,40.28-4.21,68.69,35.87,75.9,62.09" fill="none" stroke="#71bbff" stroke-width="4"/>
  <path d="M11.63,272.73c41.78-7.29,71.35-5.84,91.75,34.11,30.5,59.71,39.83,99.57,90.29,94.41,13.41-1.37,25.51,2.14,36,8.39" fill="none" stroke="#ffca45" stroke-width="4"/>
</svg>
